<svg xmlns="http://www.w3.org/2000/svg" viewBox="0 0 500 500"><g id="freepik--background-complete--inject-23"><polygon points="316.09 380.08 444.19 380.08 448.31 298.79 311.97 298.79 316.09 380.08" style="fill:#ebebeb"></polygon><path d="M434.8,336H322l-1.55-28.22H436.62Zm-111.87-1H433.87l1.68-26.22H321.48Z" style="fill:#dbdbdb"></path><path d="M433.28,368.47h-108L324,343H434.87Zm-107.1-1H432.34L433.8,344H325Z" style="fill:#dbdbdb"></path><path d="M391.37,325H367.45l-.88-6.8h25.68Zm-23-1h22.16l.62-4.8h-23.4Z" style="fill:#dbdbdb"></path><path d="M391.37,359.14H367.45l-.88-6.81h25.68Zm-23-1h22.16l.62-4.81h-23.4Z" style="fill:#dbdbdb"></path><polygon points="333.85 380.08 332.61 388.94 330.11 406.73 325.21 406.73 325.21 380.08 333.85 380.08" style="fill:#ebebeb"></polygon><polygon points="333.85 380.08 332.61 388.94 325.21 388.94 325.21 380.08 333.85 380.08" style="fill:#dbdbdb"></polygon><polygon points="426.43 380.08 427.67 388.94 430.17 406.73 435.07 406.73 435.07 380.08 426.43 380.08" style="fill:#ebebeb"></polygon><polygon points="426.43 380.08 427.67 388.94 435.07 388.94 435.07 380.08 426.43 380.08" style="fill:#dbdbdb"></polygon><path d="M82.59,327.06l-13.12.27-6.66.12c-2.23,0-4.47,0-6.7.05h-.44v-.44l-.06-11.19v-.51h.5l13.24.06c4.42,0,8.83.11,13.24.16h.28v.27c0,1.89-.09,3.78-.13,5.65Zm0,0-.14-5.66c0-1.86-.11-3.7-.13-5.53l.27.27c-4.41.05-8.82.16-13.24.16l-13.24.07.5-.5,0,11.19-.45-.45c2.18,0,4.36,0,6.55.05l6.58.12Z" style="fill:#ebebeb"></path><path d="M67.82,341.17l-13.12.27-6.66.12c-2.23,0-4.47,0-6.7.05H40.9v-.44L40.84,330v-.51h.5l13.24.06c4.41,0,8.83.11,13.24.16h.28V330c0,1.89-.08,3.78-.13,5.65Zm0,0-.14-5.66c-.05-1.86-.11-3.7-.13-5.53l.27.27c-4.41.05-8.83.16-13.24.16l-13.24.06.5-.49-.05,11.19-.45-.45c2.18,0,4.36,0,6.55,0l6.58.12Z" style="fill:#ebebeb"></path><path d="M406.5,202.49l-13.12.28-6.66.11c-2.23.05-4.47,0-6.7.06h-.44v-.45l-.06-11.19v-.5h.5l13.24.07c4.42,0,8.83.11,13.24.16h.28v.27c0,1.9-.09,3.79-.14,5.66Zm0,0-.14-5.65c0-1.86-.11-3.71-.13-5.54l.27.28c-4.41,0-8.82.15-13.24.16L380,191.8l.5-.5,0,11.19-.45-.44c2.18,0,4.36,0,6.55,0l6.58.11Z" style="fill:#ebebeb"></path><path d="M391.73,216.6l-13.12.28L372,217c-2.23,0-4.47,0-6.7.06h-.44v-.45l-.05-11.19v-.5h.5l13.24.07c4.41,0,8.83.11,13.24.16H392v.27c0,1.9-.08,3.79-.13,5.66Zm0,0-.14-5.65c0-1.86-.11-3.71-.13-5.54l.27.28c-4.41.05-8.83.15-13.24.16l-13.24.06.5-.5-.05,11.19-.45-.44c2.18,0,4.36,0,6.55.05l6.58.11Z" style="fill:#ebebeb"></path><path d="M377,202.49l-13.13.28-6.66.11c-2.22.05-4.46,0-6.69.06h-.45v-.45l0-11.19v-.5h.51l13.24.07c4.41,0,8.82.11,13.24.16h.27v.27c0,1.9-.09,3.79-.13,5.66Zm0,0-.14-5.65c-.05-1.86-.12-3.71-.14-5.54l.28.28c-4.42,0-8.83.15-13.24.16l-13.24.06.5-.5L351,202.49l-.44-.44c2.18,0,4.35,0,6.54,0l6.58.11Z" style="fill:#ebebeb"></path><path d="M458.66,341.17l-13.13.27-6.66.12c-2.22,0-4.46,0-6.69.05h-.45v-.44L431.68,330v-.51h.5l13.24.06c4.41,0,8.83.11,13.24.16h.27V330c0,1.89-.08,3.78-.13,5.65Zm0,0-.14-5.66c0-1.86-.12-3.7-.13-5.53l.27.27c-4.41.05-8.83.16-13.24.16l-13.24.06.5-.49-.06,11.19-.44-.45c2.18,0,4.36,0,6.54,0l6.58.12Z" style="fill:#ebebeb"></path><path d="M443.89,67.49l-13.13.27-6.66.12c-2.22,0-4.46,0-6.69.05H417v-.45l0-11.19v-.51h.51l13.24.06c4.41,0,8.82.11,13.24.16h.27v.27c0,1.9-.09,3.78-.13,5.65Zm0,0-.14-5.66c-.05-1.86-.12-3.7-.14-5.53l.28.27c-4.42,0-8.83.16-13.24.16l-13.24.07.5-.5-.06,11.19-.44-.45c2.18,0,4.35,0,6.54.06l6.58.11Z" style="fill:#ebebeb"></path><path d="M458.66,81.6l-13.13.27-6.66.12c-2.22,0-4.46,0-6.69.05h-.45V81.6l-.05-11.19V69.9h.5l13.24.06c4.41,0,8.83.11,13.24.16h.27v.27c0,1.89-.08,3.78-.13,5.65Zm0,0-.14-5.66c0-1.86-.12-3.7-.13-5.53l.27.27c-4.41,0-8.83.16-13.24.16l-13.24.07.5-.5-.06,11.19-.44-.45c2.18,0,4.36,0,6.54.06l6.58.11Z" style="fill:#ebebeb"></path><path d="M82.59,67.49l-13.12.27-6.66.12c-2.23,0-4.47,0-6.7.05h-.44v-.45L55.61,56.3v-.51h.5l13.24.06c4.42,0,8.83.11,13.24.16h.28v.27c0,1.9-.09,3.78-.13,5.65Zm0,0-.14-5.66c0-1.86-.11-3.7-.13-5.53l.27.27c-4.41,0-8.82.16-13.24.16l-13.24.07.5-.5,0,11.19L56.11,67c2.18,0,4.36,0,6.55.06l6.58.11Z" style="fill:#ebebeb"></path><rect x="429.77" width="1" height="87.64" style="fill:#c7c7c7"></rect><polygon points="399.84 116.98 402.28 122.36 458.26 122.36 460.7 116.98 436.87 100.48 423.67 100.48 399.84 116.98" style="fill:#ebebeb"></polygon><polygon points="422.01 84.59 423.67 100.48 436.87 100.48 438.52 84.59 422.01 84.59" style="fill:#dbdbdb"></polygon><polygon points="399.84 116.98 402.29 122.36 458.26 122.36 460.7 116.98 399.84 116.98" style="fill:#dbdbdb"></polygon><rect x="364.43" width="1" height="70.28" style="fill:#c7c7c7"></rect><polygon points="334.49 99.62 336.94 105 392.92 105 395.36 99.62 371.53 83.12 358.32 83.12 334.49 99.62" style="fill:#ebebeb"></polygon><polygon points="356.67 67.23 358.32 83.12 371.53 83.12 373.18 67.23 356.67 67.23" style="fill:#dbdbdb"></polygon><polygon points="334.5 99.62 336.94 105 392.92 105 395.36 99.62 334.5 99.62" style="fill:#dbdbdb"></polygon><path d="M449.31,170.65l.2,77.6a7.86,7.86,0,0,1-7.83,7.88l-123.08.32a7.85,7.85,0,0,1-7.86-7.84l-.21-77.6a7.31,7.31,0,0,1,7.29-7.33L442,163.36A7.31,7.31,0,0,1,449.31,170.65Z" style="fill:#dbdbdb"></path><path d="M429.48,237.37a7.23,7.23,0,1,1-7.24-7.21A7.23,7.23,0,0,1,429.48,237.37Z" style="fill:#a6a6a6"></path><path d="M438.37,237.34a7.22,7.22,0,1,1-7.24-7.2A7.23,7.23,0,0,1,438.37,237.34Z" style="fill:#FFC727"></path><rect x="322.23" y="176.96" width="26.05" height="18" rx="4.2" transform="translate(-0.48 0.87) rotate(-0.15)" style="fill:#FFC727"></rect><path d="M433.31,186.58l-11.79,0a4.93,4.93,0,0,1-4.95-4.92h0a4.94,4.94,0,0,1,4.92-4.95l11.79,0a4.94,4.94,0,0,1,5,4.92h0A4.93,4.93,0,0,1,433.31,186.58Z" style="fill:#fff"></path><path d="M321.34,211.42l-1.06.62a.24.24,0,0,1-.13.05.27.27,0,0,1-.23-.13.25.25,0,0,1,.1-.36l1.45-.89a.28.28,0,0,1,.36.1.32.32,0,0,1,0,.19l0,6.95a.26.26,0,0,1-.26.26.26.26,0,0,1-.26-.26Z" style="fill:#f8f8f8"></path><path d="M323.73,217.74l3.53-3.2a2,2,0,0,0,.64-1.45,1.94,1.94,0,0,0-1.95-1.92,1.92,1.92,0,0,0-1.31.5l-.37.33a.25.25,0,0,1-.37,0,.24.24,0,0,1,0-.36l.37-.35a2.53,2.53,0,0,1,1.67-.64,2.49,2.49,0,0,1,2.47,2.45,2.5,2.5,0,0,1-.81,1.84l-3,2.74h3.57a.27.27,0,0,1,0,.53h-4.25a.24.24,0,0,1-.2-.08A.29.29,0,0,1,323.73,217.74Z" style="fill:#f8f8f8"></path><path d="M334.66,211.09l-2,2a2.58,2.58,0,0,1,1.3.69,2.63,2.63,0,0,1,.75,1.81,2.56,2.56,0,0,1-4.37,1.83.27.27,0,0,1,.38-.38,2,2,0,0,0,1.42.58,2,2,0,0,0,2-2,2,2,0,0,0-2-2,.26.26,0,0,1-.21-.11h0a.27.27,0,0,1,0-.39l1.87-1.93H331a.26.26,0,0,1-.28-.26.27.27,0,0,1,.27-.28h3.53a.26.26,0,0,1,.27.26.21.21,0,0,1,0,.12A.19.19,0,0,1,334.66,211.09Z" style="fill:#f8f8f8"></path><path d="M341,216.6h-4.13a.24.24,0,0,1-.16-.05.25.25,0,0,1,0-.37l4.35-5.45h0a.25.25,0,0,1,.36,0,.34.34,0,0,1,.09.13.2.2,0,0,0,0,.05v5.21h.51a.26.26,0,1,1,0,.52h-.51v1.3a.26.26,0,0,1-.27.25.26.26,0,0,1-.26-.25Zm0-.52v-4.42l-3.56,4.43Z" style="fill:#f8f8f8"></path><path d="M350.49,217.39a.27.27,0,0,1,.38-.38,2.09,2.09,0,0,0,1.43.58,2,2,0,0,0,1.42-.6,2,2,0,0,0,.6-1.43,2,2,0,0,0-.59-1.43,2,2,0,0,0-1.43-.58,2,2,0,0,0-1.43.6.28.28,0,0,1-.38,0,.31.31,0,0,1-.07-.09h0a0,0,0,0,1,0,0,.25.25,0,0,1,0-.09.43.43,0,0,0,0-.05l.36-3a.24.24,0,0,1,.11-.19.22.22,0,0,1,.17-.07h3.52a.27.27,0,0,1,.27.27.26.26,0,0,1-.27.27h-3.29l-.26,2.25a2.56,2.56,0,0,1,3.09,4,2.68,2.68,0,0,1-1.81.75A2.58,2.58,0,0,1,350.49,217.39Z" style="fill:#f8f8f8"></path><path d="M357.67,212.21a3.08,3.08,0,0,1,2.64-1.65.26.26,0,0,1,.27.25.28.28,0,0,1-.26.28,2.57,2.57,0,0,0-2.2,1.38,5.2,5.2,0,0,0-.53,1.51,2.47,2.47,0,0,1,1.86-.86,2.5,2.5,0,1,1-2.48,2.59,2.8,2.8,0,0,1,0-.5A6.19,6.19,0,0,1,357.67,212.21Zm-.17,3.45a.52.52,0,0,0,0,.14.19.19,0,0,1,0,.08,2,2,0,1,0,0-.26Z" style="fill:#f8f8f8"></path><path d="M364.72,217.73l2.78-6.64h-3.65a.26.26,0,1,1,0-.52h4a.29.29,0,0,1,.16,0,.27.27,0,0,1,.14.16.19.19,0,0,1,0,.09.19.19,0,0,1-.05.14l-2.9,7a.27.27,0,0,1-.24.16.22.22,0,0,1-.11,0A.28.28,0,0,1,364.72,217.73Z" style="fill:#f8f8f8"></path><path d="M372.17,210.52a1.56,1.56,0,0,1,.93,2.83,2.46,2.46,0,0,1,1.53,2.27,2.45,2.45,0,0,1-4.9,0,2.47,2.47,0,0,1,1.51-2.27,1.58,1.58,0,0,1-.63-1.27A1.55,1.55,0,0,1,372.17,210.52Zm0,7a1.94,1.94,0,1,0-1.93-1.93A1.93,1.93,0,0,0,372.18,217.56Zm0-4.41a1.08,1.08,0,0,0,1.06-1.07,1.06,1.06,0,0,0-2.11,0A1.06,1.06,0,0,0,372.17,213.15Z" style="fill:#f8f8f8"></path><path d="M385.6,210.48a2.5,2.5,0,0,1,2.49,2.2l0,0c0,.21,0,.42,0,.65a6.32,6.32,0,0,1-.71,3,3.11,3.11,0,0,1-2.64,1.65h0a.26.26,0,0,1-.27-.25.28.28,0,0,1,.26-.28,2.54,2.54,0,0,0,2.2-1.37,4.92,4.92,0,0,0,.54-1.52,2.51,2.51,0,0,1-4.38-1.65A2.5,2.5,0,0,1,385.6,210.48Zm2,2.48a2,2,0,1,0-2,2A2,2,0,0,0,387.58,213Z" style="fill:#f8f8f8"></path><path d="M390,214.25a4.81,4.81,0,0,1,.72-2.65,2.13,2.13,0,0,1,3.77,0,5,5,0,0,1,.75,2.65,4.87,4.87,0,0,1-.73,2.63,2.13,2.13,0,0,1-3.78,0A4.7,4.7,0,0,1,390,214.25Zm.53,0a4.25,4.25,0,0,0,.64,2.34,1.82,1.82,0,0,0,1.45.9,1.79,1.79,0,0,0,1.44-.91,4.26,4.26,0,0,0,.65-2.34,4.34,4.34,0,0,0-.66-2.34,1.6,1.6,0,0,0-2.89,0A4.31,4.31,0,0,0,390.56,214.25Z" style="fill:#f8f8f8"></path><path d="M398.75,211.22l-1.07.62a.19.19,0,0,1-.13,0,.27.27,0,0,1-.22-.13.25.25,0,0,1,.09-.36l1.46-.89a.27.27,0,0,1,.35.1.27.27,0,0,1,0,.19v6.95a.24.24,0,0,1-.25.25.25.25,0,0,1-.26-.25Z" style="fill:#f8f8f8"></path><path d="M401.14,217.54l3.52-3.2a1.93,1.93,0,0,0,.64-1.45,1.9,1.9,0,0,0-.51-1.29,1.86,1.86,0,0,0-1.43-.63,2,2,0,0,0-1.32.5l-.37.33a.24.24,0,0,1-.36,0,.25.25,0,0,1,0-.37l.36-.34a2.56,2.56,0,0,1,1.68-.64,2.4,2.4,0,0,1,1.81.8,2.43,2.43,0,0,1,.65,1.65,2.49,2.49,0,0,1-.8,1.84l-3,2.74h3.58a.27.27,0,0,1,.26.27.26.26,0,0,1-.26.26h-4.26a.22.22,0,0,1-.19-.08A.27.27,0,0,1,401.14,217.54Z" style="fill:#f8f8f8"></path><path d="M418.54,210.87l-2,2a2.56,2.56,0,0,1,1.3.68,2.65,2.65,0,0,1,.75,1.81,2.6,2.6,0,0,1-2.57,2.58,2.5,2.5,0,0,1-1.8-.75.26.26,0,0,1,0-.38.25.25,0,0,1,.37,0A2,2,0,1,0,417.5,214a2,2,0,0,0-1.43-.59.27.27,0,0,1-.21-.1h0a.29.29,0,0,1,0-.39l1.88-1.94h-2.9a.27.27,0,0,1,0-.54h3.53a.27.27,0,0,1,.24.39A.22.22,0,0,1,418.54,210.87Z" style="fill:#f8f8f8"></path><path d="M424.89,216.38h-4.12a.24.24,0,0,1-.16,0,.25.25,0,0,1,0-.37l4.35-5.45h0a.25.25,0,0,1,.37,0,.3.3,0,0,1,.09.13s0,0,0,0v5.21h.51a.26.26,0,1,1,0,.52h-.51v1.3a.27.27,0,0,1-.53,0Zm0-.51v-4.43l-3.56,4.43Z" style="fill:#f8f8f8"></path><path d="M427.89,217.19a.26.26,0,0,1,0-.38.27.27,0,0,1,.39,0,2.07,2.07,0,0,0,1.43.58,2,2,0,0,0,1.42-.6,2,2,0,0,0-1.42-3.44,2,2,0,0,0-1.44.6.27.27,0,0,1-.37,0,.18.18,0,0,1-.07-.09h0a0,0,0,0,1,0,0,.25.25,0,0,1,0-.09.43.43,0,0,0,0,0l.36-3.05a.21.21,0,0,1,.11-.19.21.21,0,0,1,.17-.07H432a.27.27,0,0,1,.27.27.26.26,0,0,1-.27.27h-3.29l-.27,2.25a2.52,2.52,0,0,1,1.29-.35,2.54,2.54,0,0,1,2.55,2.55,2.53,2.53,0,0,1-.74,1.82,2.69,2.69,0,0,1-1.81.75A2.6,2.6,0,0,1,427.89,217.19Z" style="fill:#f8f8f8"></path><path d="M435.08,212a3,3,0,0,1,2.64-1.65.26.26,0,0,1,.27.25.28.28,0,0,1-.26.28,2.54,2.54,0,0,0-2.2,1.37,5.09,5.09,0,0,0-.54,1.52,2.49,2.49,0,1,1-.62,1.73,4.18,4.18,0,0,1,0-.5A6.19,6.19,0,0,1,435.08,212Zm-.18,3.45a.52.52,0,0,0,0,.14.19.19,0,0,1,0,.08,2,2,0,0,0,2,1.7,2,2,0,1,0-2-2Z" style="fill:#f8f8f8"></path><rect x="322.36" y="231.08" width="65.9" height="3.24" transform="translate(-0.6 0.92) rotate(-0.15)" style="fill:#a6a6a6"></rect><rect x="322.37" y="238.3" width="46.66" height="3.24" transform="translate(-0.62 0.9) rotate(-0.15)" style="fill:#a6a6a6"></rect><rect x="379.16" y="176.81" width="32.87" height="3.24" transform="matrix(1, 0, 0, 1, -0.46, 1.03)" style="fill:#a6a6a6"></rect><rect x="57.38" y="71.14" width="56.67" height="56.67" style="fill:#ebebeb"></rect><path d="M86.66,80.24a1.91,1.91,0,0,1,1.92,1.92v1a16.24,16.24,0,0,1,7,2.46,2.42,2.42,0,0,1,1.34,2.15,2.47,2.47,0,0,1-2.51,2.47,2.66,2.66,0,0,1-1.34-.4,16.07,16.07,0,0,0-4.62-2v8.61c6.81,1.7,9.72,4.43,9.72,9.22s-3.85,8.2-9.54,8.74v2.69A1.91,1.91,0,0,1,86.66,119a2,2,0,0,1-2-1.92v-2.78a19.43,19.43,0,0,1-9.18-3.49,2.48,2.48,0,0,1-1.21-2.15,2.47,2.47,0,0,1,3.94-2,15.87,15.87,0,0,0,6.63,3v-8.83c-6.54-1.7-9.58-4.17-9.58-9.23,0-4.79,3.8-8.11,9.4-8.55v-1A2,2,0,0,1,86.66,80.24Zm-1.8,15.27V87.59c-2.86.26-4.3,1.79-4.3,3.76S81.41,94.4,84.86,95.51Zm3.54,6.23v8.16c2.87-.32,4.44-1.75,4.44-3.9C92.84,104,91.85,102.82,88.4,101.74Z" style="fill:#fff"></path><rect x="95.25" y="147.4" width="50.68" height="50.68" style="fill:#ebebeb"></rect><path d="M121.43,155.54a1.71,1.71,0,0,1,1.73,1.72v.88a14.66,14.66,0,0,1,6.21,2.21,2.14,2.14,0,0,1,1.2,1.92,2.2,2.2,0,0,1-2.25,2.2,2.34,2.34,0,0,1-1.2-.36,14.53,14.53,0,0,0-4.12-1.76V170c6.09,1.53,8.69,4,8.69,8.26s-3.44,7.33-8.53,7.81v2.4a1.71,1.71,0,0,1-1.73,1.73,1.74,1.74,0,0,1-1.76-1.73V186a17.25,17.25,0,0,1-8.21-3.13,2.2,2.2,0,0,1-1.08-1.92,2.2,2.2,0,0,1,3.52-1.76,14.21,14.21,0,0,0,5.93,2.68V174c-5.85-1.52-8.57-3.73-8.57-8.25,0-4.29,3.4-7.26,8.41-7.66v-.84A1.74,1.74,0,0,1,121.43,155.54Zm-1.6,13.66v-7.09c-2.56.24-3.84,1.6-3.84,3.37S116.75,168.2,119.83,169.2Zm3.17,5.57v7.29c2.56-.28,4-1.56,4-3.48S126.08,175.73,123,174.77Z" style="fill:#fff"></path></g><g id="freepik--Shadow--inject-23"><path d="M448.31,449c0,11.28-88.78,20.42-198.31,20.42S51.69,460.31,51.69,449,140.47,428.61,250,428.61,448.31,437.75,448.31,449Z" style="fill:#ebebeb"></path></g><g id="freepik--Floor--inject-23"><polygon points="41.49 406.44 93.62 406.2 145.75 406.11 250 405.95 354.25 406.11 406.38 406.2 458.51 406.44 406.38 406.69 354.25 406.78 250 406.94 145.75 406.78 93.62 406.69 41.49 406.44" style="fill:#263238"></polygon></g><g id="freepik--Device--inject-23"><path d="M334.52,52.69H165.46a17.26,17.26,0,0,0-17.1,17.42v348a17.27,17.27,0,0,0,17.1,17.42H334.52a17.29,17.29,0,0,0,17.12-17.42v-348A17.28,17.28,0,0,0,334.52,52.69Zm6.42,354.67c0,9.16-6.86,16.57-15.32,16.57H174.38c-8.48,0-15.34-7.41-15.34-16.57V83.3c0-18.66,6.86-19.57,15.34-19.57h30.3c1.76,0,3.2,2,3.2,4.48v1.07c0,5.81,3.18,5.83,7.08,5.83H285c3.94,0,7.1,0,7.1-5.83V68.21c0-2.48,1.42-4.48,3.21-4.48h30.29c8.46,0,15.32,2.48,15.32,19.57Z" style="fill:#263238"></path><path d="M340.94,83.3V407.36c0,9.16-6.86,16.57-15.32,16.57H174.38c-8.48,0-15.34-7.41-15.34-16.57V83.3c0-18.66,6.86-19.57,15.34-19.57h30.3c1.76,0,3.2,2,3.2,4.48v1.07c0,5.81,3.18,5.83,7.08,5.83H285c3.94,0,7.1,0,7.1-5.83V68.21c0-2.48,1.42-4.48,3.21-4.48h30.29C334.08,63.73,340.94,66.21,340.94,83.3Z" style="fill:#fff"></path><path d="M340.94,83.3v36.49H159V83.3c0-18.66,6.86-19.57,15.34-19.57h30.3c1.76,0,3.2,2,3.2,4.48v1.07c0,5.81,3.18,5.83,7.08,5.83H285c3.94,0,7.1,0,7.1-5.83V68.21c0-2.48,1.42-4.48,3.21-4.48h30.29C334.08,63.73,340.94,66.21,340.94,83.3Z" style="fill:#FFC727"></path><g id="freepik--u5Zjqx--inject-23"><path d="M199.45,71l-.29.29c-.06,0-.11.11-.17.17a4,4,0,0,0-5.64,0l-.16-.17L192.9,71h0l0,0,.37-.32a4.06,4.06,0,0,1,.86-.55,4.18,4.18,0,0,1,1.13-.38c.19,0,.38,0,.57-.08s.48,0,.5,0l.38,0a4.51,4.51,0,0,1,1,.25,4.58,4.58,0,0,1,.71.33,5.35,5.35,0,0,1,.67.47l.31.28Z" style="fill:#fff"></path><path d="M194.27,72.39c-.15-.16-.3-.31-.46-.46a3.32,3.32,0,0,1,4.71,0l-.46.46a2.61,2.61,0,0,0-1.89-.78A2.66,2.66,0,0,0,194.27,72.39Z" style="fill:#fff"></path><path d="M197.6,72.85l-.46.46a1.38,1.38,0,0,0-1.94,0l-.46-.46A2,2,0,0,1,197.6,72.85Z" style="fill:#fff"></path><path d="M196.58,73.73a.41.41,0,0,1-.41.41.42.42,0,1,1,0-.83A.41.41,0,0,1,196.58,73.73Z" style="fill:#fff"></path></g><path d="M170.9,71.89a1.21,1.21,0,1,1,1.21,1.21A1.21,1.21,0,0,1,170.9,71.89Z" style="fill:#fff"></path><path d="M174.7,71.89a1.21,1.21,0,1,1,1.21,1.21A1.21,1.21,0,0,1,174.7,71.89Z" style="fill:#fff"></path><path d="M178.5,71.89a1.21,1.21,0,1,1,1.2,1.21A1.2,1.2,0,0,1,178.5,71.89Z" style="fill:#fff"></path><path d="M182.3,71.89a1.21,1.21,0,1,1,1.2,1.21A1.2,1.2,0,0,1,182.3,71.89Z" style="fill:#fff"></path><path d="M186.09,71.89a1.21,1.21,0,1,1,1.21,1.21A1.21,1.21,0,0,1,186.09,71.89Z" style="fill:#fff"></path><path d="M327.3,74.52h-9.82V70h9.82ZM318,74h8.82V70.48H318Z" style="fill:#fff"></path><rect x="318.3" y="70.75" width="6.33" height="3" style="fill:#fff"></rect><rect x="327.3" y="71.04" width="0.87" height="2.43" style="fill:#fff"></rect><polygon points="175.62 109.55 170.25 104.51 175.62 99.47 176.46 100.36 172.03 104.51 176.46 108.66 175.62 109.55" style="fill:#fff"></polygon><polygon points="324.38 99.47 329.75 104.51 324.38 109.55 323.54 108.66 327.97 104.51 323.54 100.36 324.38 99.47" style="fill:#fff"></polygon><path d="M229.22,105.1h-1.11v2a.49.49,0,0,1-.5.49.5.5,0,0,1-.5-.49v-5.31a.5.5,0,0,1,.5-.5h1.61a1.93,1.93,0,1,1,0,3.85Zm-1.11-1h1.11a.93.93,0,1,0,0-1.86h-1.11Z" style="fill:#fff"></path><path d="M234.94,106.07h-2.18l-.44,1.17a.51.51,0,0,1-.47.31l-.17,0a.52.52,0,0,1-.3-.65l2-5.3a.5.5,0,0,1,.48-.32.49.49,0,0,1,.47.32l2,5.3a.51.51,0,0,1-.29.65l-.18,0a.47.47,0,0,1-.45-.31Zm-.36-1-.73-1.94-.73,1.94Z" style="fill:#fff"></path><path d="M241.25,102.1l-1.84,2.53v2.43a.5.5,0,0,1-1,0v-2.43l-1.83-2.53a.49.49,0,1,1,.78-.58l1.54,2.11,1.54-2.11a.49.49,0,1,1,.8.58Z" style="fill:#fff"></path><path d="M247.72,101.75v5.31a.5.5,0,0,1-.5.49.48.48,0,0,1-.49-.49v-3.79l-1.3,1.8a.51.51,0,0,1-.41.21h0a.53.53,0,0,1-.42-.21l-1.29-1.8v3.79a.5.5,0,0,1-1,0v-5.31a.5.5,0,0,1,.49-.5h0a.47.47,0,0,1,.39.21l1.79,2.48,1.8-2.48a.48.48,0,0,1,.4-.21h0A.51.51,0,0,1,247.72,101.75Z" style="fill:#fff"></path><path d="M249.45,107.06v-5.31a.5.5,0,0,1,.5-.5h2.94a.5.5,0,0,1,0,1h-2.44v1.65h2.1a.5.5,0,0,1,0,1h-2.1v1.65h2.44a.52.52,0,0,1,.5.51.51.51,0,0,1-.5.49H250A.49.49,0,0,1,249.45,107.06Z" style="fill:#fff"></path><path d="M255.78,107.06a.5.5,0,0,1-.49.49.48.48,0,0,1-.49-.49v-5.23h0a.49.49,0,0,1,.2-.42.5.5,0,0,1,.68.11l2.91,4v-3.71a.49.49,0,0,1,.48-.49.51.51,0,0,1,.5.49v5.23a.5.5,0,0,1-.5.49.49.49,0,0,1-.37-.18l0-.05-2.88-4Z" style="fill:#fff"></path><path d="M265.49,102.25h-1.43v4.81a.5.5,0,0,1-1,0v-4.81h-1.42a.5.5,0,0,1-.5-.5.5.5,0,0,1,.5-.5h3.84a.49.49,0,0,1,.49.5A.5.5,0,0,1,265.49,102.25Z" style="fill:#fff"></path><path d="M267.14,106a.46.46,0,0,1,.65-.07,2.91,2.91,0,0,0,1.72.7,1.94,1.94,0,0,0,1.13-.34.78.78,0,0,0,.38-.64.47.47,0,0,0-.08-.29.76.76,0,0,0-.27-.27,3.61,3.61,0,0,0-1.23-.43h0a4.49,4.49,0,0,1-1.16-.35,1.91,1.91,0,0,1-.84-.7,1.41,1.41,0,0,1-.2-.74,1.63,1.63,0,0,1,.72-1.31,2.62,2.62,0,0,1,1.55-.48,3.52,3.52,0,0,1,2,.72.46.46,0,0,1,.12.64.46.46,0,0,1-.64.14,2.59,2.59,0,0,0-1.45-.58,1.7,1.7,0,0,0-1,.31.7.7,0,0,0-.35.56.39.39,0,0,0,.07.25.68.68,0,0,0,.24.24,3.11,3.11,0,0,0,1.13.4h0a5.4,5.4,0,0,1,1.25.37,2.14,2.14,0,0,1,.9.75,1.53,1.53,0,0,1,.21.77,1.73,1.73,0,0,1-.77,1.39,2.78,2.78,0,0,1-1.67.51,3.78,3.78,0,0,1-2.3-.9A.46.46,0,0,1,267.14,106Z" style="fill:#fff"></path><path d="M259.55,67.85H240.44a1.18,1.18,0,0,1-1.18-1.18h0a1.18,1.18,0,0,1,1.18-1.18h19.11a1.18,1.18,0,0,1,1.18,1.18h0A1.18,1.18,0,0,1,259.55,67.85Z" style="fill:#fff"></path><path d="M184.43,179.36v-4.14a.37.37,0,0,1,.38-.38h2.29a.4.4,0,0,1,.39.38.41.41,0,0,1-.39.4h-1.9v1.28h1.64a.39.39,0,0,1,.38.38.38.38,0,0,1-.38.39H185.2V179h1.9a.41.41,0,0,1,.39.4.4.4,0,0,1-.39.38h-2.27a0,0,0,0,1,0,0h0A.37.37,0,0,1,184.43,179.36Z" style="fill:#263238"></path><path d="M191.43,177.69v1.68a.38.38,0,0,1-.37.37.38.38,0,0,1-.38-.37v-1.68a.72.72,0,0,0-1.43,0v1.66a.43.43,0,0,0,0,0v0a0,0,0,0,1,0,0v0a.41.41,0,0,1-.35.22h-.07a.37.37,0,0,1-.3-.36v-1.66h0v-1.08a.37.37,0,0,1,.37-.38.37.37,0,0,1,.34.21,1.48,1.48,0,0,1,.75-.21,1.46,1.46,0,0,1,1.1.48,1.43,1.43,0,0,1,1.1-.48,1.46,1.46,0,0,1,1.45,1.47v1.66a.38.38,0,0,1-.37.37.38.38,0,0,1-.38-.37v-1.66a.71.71,0,0,0-.7-.72A.72.72,0,0,0,191.43,177.69Z" style="fill:#263238"></path><path d="M198.12,178v1.37a.38.38,0,0,1-.37.37.39.39,0,0,1-.37-.3,1.57,1.57,0,0,1-.93.3,1.65,1.65,0,0,1-1.19-.51,1.86,1.86,0,0,1,0-2.47,1.62,1.62,0,0,1,1.19-.52,1.57,1.57,0,0,1,.93.31.39.39,0,0,1,.37-.31.38.38,0,0,1,.37.38Zm-.74,0a1,1,0,0,0-.28-.72.87.87,0,0,0-1.3,0,1,1,0,0,0-.26.72,1,1,0,0,0,.26.72.92.92,0,0,0,1.3,0A1.06,1.06,0,0,0,197.38,178Z" style="fill:#263238"></path><path d="M200.25,175.36a.38.38,0,1,1-.75,0v-.14a.38.38,0,1,1,.75,0Zm0,1.27v2.73a.38.38,0,1,1-.75,0v-2.73a.38.38,0,1,1,.75,0Z" style="fill:#263238"></path><path d="M201.74,174.84a.39.39,0,0,1,.4.38v4.14a.39.39,0,0,1-.4.38.38.38,0,0,1-.38-.38v-4.14A.38.38,0,0,1,201.74,174.84Z" style="fill:#263238"></path><rect x="183.7" y="184.73" width="132.58" height="11.74" style="fill:#ebebeb"></rect><path d="M187.1,191.16a1.74,1.74,0,0,1,1.71-1.75A1.68,1.68,0,0,1,190.5,191v0s0,.05,0,.06a.33.33,0,0,1-.36.28H187.9a.93.93,0,0,0,.24.46,1.09,1.09,0,0,0,.67.32,1.11,1.11,0,0,0,.73-.18.41.41,0,0,1,.53,0,.33.33,0,0,1,0,.46,1.81,1.81,0,0,1-1.26.46A1.74,1.74,0,0,1,187.1,191.16Zm.77-.34h2a1.16,1.16,0,0,0-1-.75A1,1,0,0,0,187.87,190.82Z" style="fill:#c7c7c7"></path><path d="M194.54,190.86v1.68a.38.38,0,0,1-.37.37.38.38,0,0,1-.38-.37v-1.68a.72.72,0,0,0-1.43,0v1.66a.43.43,0,0,0,0,.05v0a0,0,0,0,1,0,0v0a.41.41,0,0,1-.35.22h-.07a.38.38,0,0,1-.3-.36v-1.66h0v-1.08a.37.37,0,0,1,.37-.38.37.37,0,0,1,.34.21,1.48,1.48,0,0,1,.75-.21,1.46,1.46,0,0,1,1.1.48,1.45,1.45,0,0,1,1.1-.48,1.47,1.47,0,0,1,1.46,1.47v1.66a.38.38,0,0,1-.75,0v-1.66a.72.72,0,0,0-1.44,0Z" style="fill:#c7c7c7"></path><path d="M201.23,191.17v1.37a.37.37,0,0,1-.73.07,1.62,1.62,0,0,1-.94.3,1.67,1.67,0,0,1-1.19-.51,1.86,1.86,0,0,1,0-2.47,1.6,1.6,0,0,1,2.13-.21.37.37,0,0,1,.36-.31.38.38,0,0,1,.37.38Zm-.74,0a1,1,0,0,0-.27-.72.88.88,0,0,0-.66-.29.84.84,0,0,0-.65.29,1,1,0,0,0-.26.72,1.09,1.09,0,0,0,.26.72.9.9,0,0,0,.65.27.94.94,0,0,0,.66-.27A1.1,1.1,0,0,0,200.49,191.17Z" style="fill:#c7c7c7"></path><path d="M203.37,188.53a.38.38,0,1,1-.76,0v-.14a.38.38,0,0,1,.76,0Zm0,1.27v2.73a.38.38,0,0,1-.76,0V189.8a.38.38,0,1,1,.76,0Z" style="fill:#c7c7c7"></path><path d="M204.86,188a.39.39,0,0,1,.39.38v4.14a.39.39,0,0,1-.78,0v-4.14A.39.39,0,0,1,204.86,188Z" style="fill:#c7c7c7"></path><path d="M209.13,191.17v1.37a.37.37,0,0,1-.74.07,1.57,1.57,0,0,1-.93.3,1.64,1.64,0,0,1-1.19-.51,1.83,1.83,0,0,1,0-2.47,1.61,1.61,0,0,1,1.19-.52,1.57,1.57,0,0,1,.93.31.37.37,0,0,1,.74.07Zm-.74,0a1,1,0,0,0-.28-.72.86.86,0,0,0-.65-.29.84.84,0,0,0-.65.29,1,1,0,0,0-.27.72,1,1,0,0,0,.27.72.9.9,0,0,0,.65.27.91.91,0,0,0,.65-.27A1.06,1.06,0,0,0,208.39,191.17Z" style="fill:#c7c7c7"></path><path d="M213.67,192.53a.38.38,0,0,1-.75.08,1.73,1.73,0,1,1-.95-3.2,1.69,1.69,0,0,1,.94.29v-1.31a.37.37,0,0,1,.38-.38.38.38,0,0,1,.38.38v2.77h0Zm-1.7-2.36a.92.92,0,0,0-.66.29,1,1,0,0,0-.28.71,1,1,0,0,0,.28.69.9.9,0,0,0,1.32,0,1,1,0,0,0,.28-.69,1,1,0,0,0-.28-.71A.92.92,0,0,0,212,190.17Z" style="fill:#c7c7c7"></path><path d="M217.27,189.78a.37.37,0,0,1-.37.37.68.68,0,0,0-.42.13,1.3,1.3,0,0,0-.32.34,2.19,2.19,0,0,0-.29.59v1.33a.38.38,0,0,1-.75,0v-2.76a.38.38,0,0,1,.75,0v.05a1,1,0,0,1,.15-.14,1.46,1.46,0,0,1,.88-.27A.36.36,0,0,1,217.27,189.78Z" style="fill:#c7c7c7"></path><path d="M217.6,191.16a1.72,1.72,0,0,1,1.7-1.75A1.67,1.67,0,0,1,221,191v.1a.35.35,0,0,1-.37.28h-2.23a1,1,0,0,0,.24.46,1.11,1.11,0,0,0,1.4.14.41.41,0,0,1,.53,0,.33.33,0,0,1,0,.46,1.81,1.81,0,0,1-1.26.46A1.73,1.73,0,0,1,217.6,191.16Zm.76-.34h2a1.16,1.16,0,0,0-1-.75A1,1,0,0,0,218.36,190.82Z" style="fill:#c7c7c7"></path><path d="M221.94,191.91a.36.36,0,0,1,.52-.06,1.24,1.24,0,0,0,.77.31.94.94,0,0,0,.48-.13.29.29,0,0,0,.12-.21s0,0,0-.07,0-.05-.09-.09a1.7,1.7,0,0,0-.56-.19h0a3.07,3.07,0,0,1-.61-.18,1.33,1.33,0,0,1-.48-.41.83.83,0,0,1-.12-.44,1,1,0,0,1,.42-.77,1.46,1.46,0,0,1,.86-.26,1.85,1.85,0,0,1,1.05.38.39.39,0,0,1,.11.52.37.37,0,0,1-.52.1,1.17,1.17,0,0,0-.64-.26.7.7,0,0,0-.42.13c-.09.06-.12.12-.12.16s0,0,0,.05a.14.14,0,0,0,.08.07,1.24,1.24,0,0,0,.51.17h0a2.34,2.34,0,0,1,.65.2,1.12,1.12,0,0,1,.5.42.94.94,0,0,1,.13.46,1,1,0,0,1-.44.81,1.56,1.56,0,0,1-.91.28,2.08,2.08,0,0,1-1.25-.48A.38.38,0,0,1,221.94,191.91Z" style="fill:#c7c7c7"></path><path d="M225.31,191.91a.37.37,0,0,1,.53-.06,1.21,1.21,0,0,0,.77.31.93.93,0,0,0,.47-.13c.1-.09.13-.16.13-.21a.12.12,0,0,0,0-.07.36.36,0,0,0-.09-.09,1.7,1.7,0,0,0-.56-.19h0a2.72,2.72,0,0,1-.61-.18,1.19,1.19,0,0,1-.48-.41.83.83,0,0,1-.12-.44,1,1,0,0,1,.41-.77,1.48,1.48,0,0,1,.86-.26,1.82,1.82,0,0,1,1,.38.38.38,0,0,1,.11.52.36.36,0,0,1-.51.1,1.2,1.2,0,0,0-.65-.26.72.72,0,0,0-.42.13.2.2,0,0,0-.11.16.07.07,0,0,0,0,.05.14.14,0,0,0,.08.07,1.24,1.24,0,0,0,.51.17h0a2.41,2.41,0,0,1,.66.2,1,1,0,0,1,.49.42.86.86,0,0,1,.14.46,1,1,0,0,1-.44.81,1.58,1.58,0,0,1-.91.28,2.08,2.08,0,0,1-1.25-.48A.37.37,0,0,1,225.31,191.91Z" style="fill:#c7c7c7"></path><path d="M233.54,190.45a2.28,2.28,0,0,1-.28,1.13h0a2.54,2.54,0,0,1-.17.24,1.21,1.21,0,0,1-.55.34l-.18,0a.63.63,0,0,1-.53-.26.53.53,0,0,1-.11-.21,1.35,1.35,0,0,1-1.6-.27,1.46,1.46,0,0,1,0-2,1.36,1.36,0,0,1,1-.42,1.38,1.38,0,0,1,1,.42,1.45,1.45,0,0,1,.38,1v.92l.05,0a.74.74,0,0,0,.1-.11,1.77,1.77,0,0,0,.17-.77,1.67,1.67,0,0,0-3.34,0,1.68,1.68,0,0,0,1.67,1.68,2,2,0,0,0,.42,0,.39.39,0,0,1,.19.75,2.49,2.49,0,0,1-.61.08,2.45,2.45,0,1,1,2.45-2.46Zm-1.87,0a.68.68,0,0,0-.18-.46.6.6,0,0,0-.4-.18.58.58,0,0,0-.4.18.69.69,0,0,0,0,.93.54.54,0,0,0,.4.18.55.55,0,0,0,.4-.18A.68.68,0,0,0,231.67,190.45Z" style="fill:#c7c7c7"></path><path d="M238.71,190.86v1.68a.38.38,0,0,1-.37.37.38.38,0,0,1-.38-.37v-1.68a.72.72,0,0,0-1.43,0v1.66a.43.43,0,0,0,0,.05v0a0,0,0,0,1,0,0v0a.41.41,0,0,1-.35.22h-.07a.37.37,0,0,1-.3-.36v-1.66h0v-1.08a.37.37,0,0,1,.37-.38.37.37,0,0,1,.34.21,1.48,1.48,0,0,1,.75-.21,1.46,1.46,0,0,1,1.1.48,1.47,1.47,0,0,1,2.55,1v1.66a.37.37,0,0,1-.37.37.38.38,0,0,1-.38-.37v-1.66a.71.71,0,0,0-.7-.72A.72.72,0,0,0,238.71,190.86Z" style="fill:#c7c7c7"></path><path d="M245.4,191.17v1.37a.37.37,0,0,1-.73.07,1.62,1.62,0,0,1-.94.3,1.65,1.65,0,0,1-1.19-.51,1.86,1.86,0,0,1,0-2.47,1.6,1.6,0,0,1,2.13-.21.37.37,0,0,1,.36-.31.38.38,0,0,1,.37.38Zm-.74,0a1,1,0,0,0-.27-.72.88.88,0,0,0-.66-.29.84.84,0,0,0-.65.29,1,1,0,0,0-.26.72,1,1,0,0,0,.26.72.9.9,0,0,0,.65.27.94.94,0,0,0,.66-.27A1.1,1.1,0,0,0,244.66,191.17Z" style="fill:#c7c7c7"></path><path d="M247.54,188.53a.38.38,0,1,1-.76,0v-.14a.38.38,0,0,1,.76,0Zm0,1.27v2.73a.38.38,0,0,1-.76,0V189.8a.38.38,0,1,1,.76,0Z" style="fill:#c7c7c7"></path><path d="M249,188a.39.39,0,0,1,.39.38v4.14a.39.39,0,0,1-.78,0v-4.14A.39.39,0,0,1,249,188Z" style="fill:#c7c7c7"></path><path d="M250.78,191.92a.52.52,0,1,1,0,1,.52.52,0,1,1,0-1Z" style="fill:#c7c7c7"></path><path d="M251.56,191.17a1.78,1.78,0,0,1,1.78-1.76,1.84,1.84,0,0,1,1.11.38.39.39,0,0,1,.08.52.37.37,0,0,1-.53.07,1.11,1.11,0,0,0-.66-.22,1,1,0,1,0,0,2,1.08,1.08,0,0,0,.66-.23.38.38,0,1,1,.45.6,1.89,1.89,0,0,1-1.11.37A1.77,1.77,0,0,1,251.56,191.17Z" style="fill:#c7c7c7"></path><path d="M256,192.4a1.75,1.75,0,0,1-.48-1.23,1.82,1.82,0,0,1,.48-1.23,1.62,1.62,0,0,1,1.2-.53,1.52,1.52,0,0,1,1.17.53,1.74,1.74,0,0,1,.49,1.23,1.67,1.67,0,0,1-.49,1.23,1.52,1.52,0,0,1-1.17.53A1.62,1.62,0,0,1,256,192.4Zm.28-1.23a1.14,1.14,0,0,0,.25.74,1,1,0,0,0,.67.26.92.92,0,0,0,.65-.26,1.1,1.1,0,0,0,.27-.74,1.08,1.08,0,0,0-.27-.73,1,1,0,0,0-.65-.27,1,1,0,0,0-.67.27A1.11,1.11,0,0,0,256.3,191.17Z" style="fill:#c7c7c7"></path><path d="M263,190.86v1.68a.38.38,0,0,1-.37.37.38.38,0,0,1-.38-.37v-1.68a.72.72,0,0,0-1.43,0v1.66a.43.43,0,0,0,0,.05v0a0,0,0,0,1,0,0v0a.41.41,0,0,1-.35.22h-.07a.37.37,0,0,1-.3-.36v-1.66h0v-1.08a.37.37,0,0,1,.37-.38.37.37,0,0,1,.34.21,1.48,1.48,0,0,1,.75-.21,1.46,1.46,0,0,1,1.1.48,1.47,1.47,0,0,1,2.55,1v1.66a.37.37,0,0,1-.37.37.38.38,0,0,1-.38-.37v-1.66a.71.71,0,0,0-.7-.72A.72.72,0,0,0,263,190.86Z" style="fill:#c7c7c7"></path><path d="M186.06,206.18h-.86v1.52a.39.39,0,0,1-.77,0v-4.14a.38.38,0,0,1,.38-.38h1.25a1.5,1.5,0,1,1,0,3Zm-.86-.78h.86a.72.72,0,1,0,0-1.44h-.86Z" style="fill:#263238"></path><path d="M191.39,206.34v1.37a.37.37,0,0,1-.73.07,1.62,1.62,0,0,1-2.12-.21,1.76,1.76,0,0,1-.48-1.23,1.72,1.72,0,0,1,.48-1.23,1.58,1.58,0,0,1,1.19-.53,1.6,1.6,0,0,1,.93.31.37.37,0,0,1,.36-.31.38.38,0,0,1,.37.38Zm-.74,0a1,1,0,0,0-.27-.72.87.87,0,0,0-.65-.29.86.86,0,0,0-.66.29,1,1,0,0,0-.26.72,1.07,1.07,0,0,0,.26.72.92.92,0,0,0,.66.27.93.93,0,0,0,.65-.27A1,1,0,0,0,190.65,206.34Z" style="fill:#263238"></path><path d="M192.6,207.08a.36.36,0,0,1,.52-.06,1.24,1.24,0,0,0,.77.31,1,1,0,0,0,.48-.13.29.29,0,0,0,.12-.21s0-.05,0-.07a.18.18,0,0,0-.09-.08,1.67,1.67,0,0,0-.56-.2h0a3.07,3.07,0,0,1-.61-.18,1.24,1.24,0,0,1-.48-.41.81.81,0,0,1-.12-.44,1,1,0,0,1,.42-.77,1.46,1.46,0,0,1,.86-.26,1.78,1.78,0,0,1,1.05.39.38.38,0,0,1,.11.51.37.37,0,0,1-.52.1,1.25,1.25,0,0,0-.64-.26.7.7,0,0,0-.42.13.24.24,0,0,0-.12.16s0,0,0,.06a.31.31,0,0,0,.08.07,1.45,1.45,0,0,0,.51.16h0a2.73,2.73,0,0,1,.65.2,1.12,1.12,0,0,1,.5.42.94.94,0,0,1,.13.46,1,1,0,0,1-.44.81,1.56,1.56,0,0,1-.91.28,2,2,0,0,1-1.25-.48A.38.38,0,0,1,192.6,207.08Z" style="fill:#263238"></path><path d="M196,207.08a.36.36,0,0,1,.52-.06,1.26,1.26,0,0,0,.77.31.94.94,0,0,0,.48-.13.28.28,0,0,0,.13-.21.12.12,0,0,0,0-.07.22.22,0,0,0-.1-.08,1.51,1.51,0,0,0-.56-.2h0a2.72,2.72,0,0,1-.61-.18,1.2,1.2,0,0,1-.49-.41.9.9,0,0,1-.11-.44,1,1,0,0,1,.41-.77,1.48,1.48,0,0,1,.86-.26,1.76,1.76,0,0,1,1.05.39.37.37,0,1,1-.41.61,1.25,1.25,0,0,0-.64-.26.72.72,0,0,0-.42.13.21.21,0,0,0-.11.16.11.11,0,0,0,0,.06.31.31,0,0,0,.08.07,1.45,1.45,0,0,0,.51.16h0a2.81,2.81,0,0,1,.66.2,1.15,1.15,0,0,1,.49.42.86.86,0,0,1,.14.46,1,1,0,0,1-.45.81,1.54,1.54,0,0,1-.91.28,2,2,0,0,1-1.24-.48A.37.37,0,0,1,196,207.08Z" style="fill:#263238"></path><path d="M204,205.14l-1.16,2.72,0,0h0a.08.08,0,0,1,0,0h0l0,0a0,0,0,0,0,0,0s0,0-.06,0h0l-.06,0h-.16a.06.06,0,0,0-.05,0h0s0,0-.06,0h0s0,0,0,0h0s0,0,0,0h0l0,0-.51-1.21-.5,1.21,0,0h0l0,0h0l0,0s0,0-.07,0h0l0,0h-.17l-.05,0h0a.08.08,0,0,1-.06,0h0l0,0h0s0,0,0,0h0s0,0,0,0l-1.15-2.72a.36.36,0,0,1,.21-.48.34.34,0,0,1,.46.21l.83,1.88.49-1.17a.36.36,0,0,1,.34-.22.35.35,0,0,1,.34.22l.5,1.17.83-1.88a.34.34,0,0,1,.47-.21A.36.36,0,0,1,204,205.14Z" style="fill:#263238"></path><path d="M205.65,207.57a1.75,1.75,0,0,1-.48-1.23,1.82,1.82,0,0,1,.48-1.23,1.62,1.62,0,0,1,1.2-.53,1.52,1.52,0,0,1,1.17.53,1.74,1.74,0,0,1,.49,1.23,1.67,1.67,0,0,1-.49,1.23,1.52,1.52,0,0,1-1.17.53A1.62,1.62,0,0,1,205.65,207.57Zm.28-1.23a1.14,1.14,0,0,0,.25.74,1,1,0,0,0,.67.26.92.92,0,0,0,.65-.26,1.1,1.1,0,0,0,.27-.74,1.08,1.08,0,0,0-.27-.73,1,1,0,0,0-.65-.27,1.06,1.06,0,0,0-.67.27A1.11,1.11,0,0,0,205.93,206.34Z" style="fill:#263238"></path><path d="M211.72,205a.37.37,0,0,1-.37.37.68.68,0,0,0-.42.14,1,1,0,0,0-.32.33,2,2,0,0,0-.29.59v1.33a.39.39,0,0,1-.39.37.38.38,0,0,1-.37-.37V205a.37.37,0,0,1,.37-.36.38.38,0,0,1,.39.36V205a1,1,0,0,1,.15-.14,1.53,1.53,0,0,1,.88-.27A.36.36,0,0,1,211.72,205Z" style="fill:#263238"></path><path d="M215.63,207.7a.37.37,0,0,1-.37.38.39.39,0,0,1-.38-.3,1.7,1.7,0,0,1-.95.3,1.75,1.75,0,0,1,0-3.5,1.66,1.66,0,0,1,.94.29v-1.31a.38.38,0,0,1,.39-.38.37.37,0,0,1,.37.38v2.77h0Zm-1.7-2.36a.93.93,0,0,0-.66.29,1,1,0,0,0-.28.71,1,1,0,0,0,.28.69.93.93,0,0,0,.66.29.92.92,0,0,0,.66-.29,1,1,0,0,0,.28-.69,1,1,0,0,0-.28-.71A.92.92,0,0,0,213.93,205.34Z" style="fill:#263238"></path><rect x="183.7" y="213.07" width="132.58" height="11.74" style="fill:#ebebeb"></rect><path d="M188.16,217.72l-.52.39a.37.37,0,0,1-.18.07.24.24,0,0,1-.23-.24.25.25,0,0,1,.16-.22l.62-.26-.62-.28a.24.24,0,0,1-.16-.21.23.23,0,0,1,.24-.23.27.27,0,0,1,.17.07l.52.38-.07-.62a.23.23,0,0,1,.22-.27.22.22,0,0,1,.22.26l-.07.63.52-.38a.26.26,0,0,1,.18-.07.23.23,0,0,1,.23.23.23.23,0,0,1-.16.21l-.62.28.62.26a.26.26,0,0,1,.16.23.24.24,0,0,1-.24.23.31.31,0,0,1-.17-.07l-.52-.39.07.63a.22.22,0,0,1-.22.26.22.22,0,0,1-.22-.26Z" style="fill:#c7c7c7"></path><path d="M191.17,217.72l-.52.39a.37.37,0,0,1-.18.07.23.23,0,0,1-.23-.24.25.25,0,0,1,.16-.22l.62-.26-.62-.28a.24.24,0,0,1-.16-.21.23.23,0,0,1,.24-.23.27.27,0,0,1,.17.07l.52.38-.07-.62a.23.23,0,0,1,.22-.27.22.22,0,0,1,.22.26l-.07.63.52-.38a.26.26,0,0,1,.18-.07.23.23,0,0,1,.23.23.23.23,0,0,1-.16.21l-.62.28.62.26a.26.26,0,0,1,.16.23.24.24,0,0,1-.24.23.31.31,0,0,1-.17-.07l-.52-.39.07.63a.22.22,0,0,1-.22.26.22.22,0,0,1-.22-.26Z" style="fill:#c7c7c7"></path><path d="M194.18,217.72l-.52.39a.37.37,0,0,1-.18.07.23.23,0,0,1-.23-.24.25.25,0,0,1,.16-.22l.62-.26-.62-.28a.24.24,0,0,1-.16-.21.23.23,0,0,1,.24-.23.27.27,0,0,1,.17.07l.52.38-.07-.62a.23.23,0,0,1,.22-.27.22.22,0,0,1,.22.26l-.07.63.52-.38a.26.26,0,0,1,.18-.07.23.23,0,0,1,.23.23.23.23,0,0,1-.16.21l-.62.28.62.26a.26.26,0,0,1,.16.23.25.25,0,0,1-.24.23.31.31,0,0,1-.17-.07l-.52-.39.07.63a.22.22,0,0,1-.22.26.22.22,0,0,1-.22-.26Z" style="fill:#c7c7c7"></path><path d="M197.19,217.72l-.52.39a.37.37,0,0,1-.18.07.23.23,0,0,1-.23-.24.25.25,0,0,1,.16-.22l.62-.26-.62-.28a.24.24,0,0,1-.16-.21.23.23,0,0,1,.24-.23.27.27,0,0,1,.17.07l.52.38-.07-.62a.23.23,0,0,1,.22-.27.22.22,0,0,1,.22.26l-.07.63.52-.38a.26.26,0,0,1,.18-.07.23.23,0,0,1,.23.23.23.23,0,0,1-.16.21l-.62.28.62.26a.26.26,0,0,1,.16.23.25.25,0,0,1-.24.23.31.31,0,0,1-.17-.07l-.52-.39.07.63a.22.22,0,0,1-.22.26.22.22,0,0,1-.22-.26Z" style="fill:#c7c7c7"></path><path d="M200.2,217.72l-.52.39a.37.37,0,0,1-.18.07.23.23,0,0,1-.23-.24.25.25,0,0,1,.16-.22l.62-.26-.62-.28a.24.24,0,0,1-.16-.21.23.23,0,0,1,.24-.23.27.27,0,0,1,.17.07l.52.38-.07-.62a.23.23,0,0,1,.22-.27.22.22,0,0,1,.22.26l-.07.63.52-.38a.26.26,0,0,1,.18-.07.23.23,0,0,1,.23.23.23.23,0,0,1-.16.21l-.62.28.62.26a.26.26,0,0,1,.16.23.25.25,0,0,1-.24.23.31.31,0,0,1-.17-.07l-.52-.39.07.63a.22.22,0,0,1-.22.26.22.22,0,0,1-.22-.26Z" style="fill:#c7c7c7"></path><path d="M203.21,217.72l-.52.39a.37.37,0,0,1-.18.07.23.23,0,0,1-.23-.24.25.25,0,0,1,.16-.22l.62-.26-.62-.28a.24.24,0,0,1-.16-.21.23.23,0,0,1,.24-.23.27.27,0,0,1,.17.07l.52.38-.07-.62a.23.23,0,0,1,.22-.27.22.22,0,0,1,.22.26l-.07.63.52-.38a.26.26,0,0,1,.18-.07.23.23,0,0,1,.23.23.23.23,0,0,1-.16.21l-.62.28.62.26a.26.26,0,0,1,.16.23.24.24,0,0,1-.24.23.31.31,0,0,1-.17-.07l-.52-.39.07.63a.22.22,0,0,1-.22.26.22.22,0,0,1-.22-.26Z" style="fill:#c7c7c7"></path><path d="M206.22,217.72l-.52.39a.37.37,0,0,1-.18.07.23.23,0,0,1-.23-.24.25.25,0,0,1,.16-.22l.62-.26-.62-.28a.24.24,0,0,1-.16-.21.23.23,0,0,1,.24-.23.27.27,0,0,1,.17.07l.52.38-.07-.62a.23.23,0,0,1,.22-.27.22.22,0,0,1,.22.26l-.07.63.52-.38a.26.26,0,0,1,.18-.07.23.23,0,0,1,.23.23.23.23,0,0,1-.16.21l-.62.28.62.26a.26.26,0,0,1,.16.23.24.24,0,0,1-.24.23.31.31,0,0,1-.17-.07l-.52-.39.07.63a.22.22,0,0,1-.22.26.22.22,0,0,1-.22-.26Z" style="fill:#c7c7c7"></path><path d="M209.23,217.72l-.52.39a.37.37,0,0,1-.18.07.23.23,0,0,1-.23-.24.25.25,0,0,1,.16-.22l.62-.26-.62-.28a.24.24,0,0,1-.16-.21.23.23,0,0,1,.24-.23.27.27,0,0,1,.17.07l.52.38-.07-.62a.23.23,0,0,1,.22-.27.22.22,0,0,1,.22.26l-.07.63.52-.38a.26.26,0,0,1,.18-.07.23.23,0,0,1,.23.23.23.23,0,0,1-.16.21l-.62.28.62.26a.26.26,0,0,1,.16.23.25.25,0,0,1-.24.23.31.31,0,0,1-.17-.07l-.52-.39.07.63a.22.22,0,0,1-.22.26.22.22,0,0,1-.22-.26Z" style="fill:#c7c7c7"></path><path d="M212.24,217.72l-.52.39a.37.37,0,0,1-.18.07.23.23,0,0,1-.23-.24.25.25,0,0,1,.16-.22l.62-.26-.62-.28a.24.24,0,0,1-.16-.21.23.23,0,0,1,.24-.23.27.27,0,0,1,.17.07l.52.38-.07-.62a.23.23,0,0,1,.22-.27.22.22,0,0,1,.22.26l-.07.63.52-.38a.26.26,0,0,1,.18-.07.23.23,0,0,1,.23.23.23.23,0,0,1-.16.21l-.62.28.62.26a.26.26,0,0,1,.16.23.25.25,0,0,1-.24.23.31.31,0,0,1-.17-.07l-.52-.39.07.63a.22.22,0,0,1-.22.26.22.22,0,0,1-.22-.26Z" style="fill:#c7c7c7"></path><path d="M215.25,217.72l-.52.39a.37.37,0,0,1-.18.07.23.23,0,0,1-.23-.24.25.25,0,0,1,.16-.22l.62-.26-.62-.28a.24.24,0,0,1-.16-.21.23.23,0,0,1,.24-.23.27.27,0,0,1,.17.07l.52.38-.07-.62a.23.23,0,0,1,.22-.27.22.22,0,0,1,.22.26l-.08.63.53-.38a.26.26,0,0,1,.18-.07.23.23,0,0,1,.23.23.23.23,0,0,1-.16.21l-.62.28.62.26a.26.26,0,0,1,.16.23.25.25,0,0,1-.24.23.31.31,0,0,1-.17-.07l-.53-.39.08.63a.22.22,0,0,1-.22.26.22.22,0,0,1-.22-.26Z" style="fill:#c7c7c7"></path><path d="M218.26,217.72l-.52.39a.37.37,0,0,1-.18.07.23.23,0,0,1-.23-.24.25.25,0,0,1,.16-.22l.62-.26-.62-.28a.24.24,0,0,1-.16-.21.23.23,0,0,1,.24-.23.27.27,0,0,1,.17.07l.52.38-.07-.62a.23.23,0,0,1,.22-.27.21.21,0,0,1,.21.26l-.06.63.52-.38a.26.26,0,0,1,.18-.07.23.23,0,0,1,.23.23.23.23,0,0,1-.16.21l-.62.28.62.26a.26.26,0,0,1,.16.23.24.24,0,0,1-.24.23.31.31,0,0,1-.17-.07l-.52-.39.06.63a.21.21,0,0,1-.21.26.22.22,0,0,1-.22-.26Z" style="fill:#c7c7c7"></path><path d="M221.27,217.72l-.52.39a.37.37,0,0,1-.18.07.24.24,0,0,1-.23-.24.25.25,0,0,1,.16-.22l.62-.26-.62-.28a.24.24,0,0,1-.16-.21.23.23,0,0,1,.24-.23.27.27,0,0,1,.17.07l.52.38-.07-.62a.23.23,0,0,1,.22-.27.22.22,0,0,1,.22.26l-.07.63.52-.38a.26.26,0,0,1,.18-.07.23.23,0,0,1,.23.23.23.23,0,0,1-.16.21l-.62.28.62.26a.26.26,0,0,1,.16.23.25.25,0,0,1-.24.23.31.31,0,0,1-.17-.07l-.52-.39.07.63a.22.22,0,0,1-.22.26.22.22,0,0,1-.22-.26Z" style="fill:#c7c7c7"></path><path d="M224.28,217.72l-.52.39a.37.37,0,0,1-.18.07.24.24,0,0,1-.23-.24.25.25,0,0,1,.16-.22l.62-.26-.62-.28a.24.24,0,0,1-.16-.21.23.23,0,0,1,.24-.23.27.27,0,0,1,.17.07l.52.38-.07-.62a.23.23,0,0,1,.22-.27.22.22,0,0,1,.22.26l-.07.63.52-.38a.26.26,0,0,1,.18-.07.23.23,0,0,1,.23.23.23.23,0,0,1-.16.21l-.62.28.62.26a.26.26,0,0,1,.16.23.25.25,0,0,1-.24.23.31.31,0,0,1-.17-.07l-.52-.39.07.63a.22.22,0,0,1-.22.26.22.22,0,0,1-.22-.26Z" style="fill:#c7c7c7"></path><path d="M185.2,266a.39.39,0,0,1-.38.38.38.38,0,0,1-.39-.38V262h0a.39.39,0,0,1,.16-.32.38.38,0,0,1,.53.09l2.26,3.13V262a.39.39,0,0,1,.38-.38.4.4,0,0,1,.39.38V266a.39.39,0,0,1-.39.38.37.37,0,0,1-.29-.14s0,0,0,0l-2.24-3.11Z" style="fill:#263238"></path><path d="M191.13,266.42a1.45,1.45,0,0,1-1.45-1.45v-1.68a.37.37,0,1,1,.74,0V265a.7.7,0,0,0,.71.71.73.73,0,0,0,.74-.71v-1.68a.37.37,0,0,1,.36-.37.39.39,0,0,1,.38.37V265A1.47,1.47,0,0,1,191.13,266.42Z" style="fill:#263238"></path><path d="M197,264.37v1.68a.36.36,0,0,1-.37.37.38.38,0,0,1-.37-.37v-1.68a.73.73,0,0,0-.73-.7.71.71,0,0,0-.7.72v1.66a.43.43,0,0,1,0,.05v0l0,.05v0a.39.39,0,0,1-.35.22h-.07a.38.38,0,0,1-.3-.37v-1.66h0V263.3a.37.37,0,0,1,.37-.38.34.34,0,0,1,.33.21,1.54,1.54,0,0,1,.75-.21,1.41,1.41,0,0,1,1.1.49,1.42,1.42,0,0,1,1.1-.49,1.46,1.46,0,0,1,1.46,1.47v1.66a.37.37,0,0,1-.37.37.38.38,0,0,1-.38-.37v-1.66a.71.71,0,0,0-.71-.72A.74.74,0,0,0,197,264.37Z" style="fill:#263238"></path><path d="M200.69,264.68h0V261.9a.39.39,0,0,1,.77,0v1.32a1.67,1.67,0,0,1,.94-.3,1.75,1.75,0,0,1,0,3.5,1.68,1.68,0,0,1-1-.3.37.37,0,0,1-.37.3.38.38,0,0,1-.38-.37Zm.77,0a.94.94,0,0,0,.28.69.88.88,0,0,0,1.31,0,.94.94,0,0,0,.28-.69,1,1,0,0,0-.28-.71.91.91,0,0,0-1.31,0A1,1,0,0,0,201.46,264.68Z" style="fill:#263238"></path><path d="M205.07,264.67a1.74,1.74,0,0,1,1.71-1.75,1.68,1.68,0,0,1,1.69,1.63v0a.17.17,0,0,1,0,.07.35.35,0,0,1-.37.28h-2.22a.86.86,0,0,0,.24.46,1,1,0,0,0,.67.31,1.19,1.19,0,0,0,.73-.17.39.39,0,0,1,.52,0,.32.32,0,0,1,0,.45,1.77,1.77,0,0,1-3-1.29Zm.76-.34h2a1.13,1.13,0,0,0-1-.74A1,1,0,0,0,205.83,264.33Z" style="fill:#263238"></path><path d="M211.59,263.29a.38.38,0,0,1-.37.38.64.64,0,0,0-.42.13,1,1,0,0,0-.33.33,2.23,2.23,0,0,0-.28.59v1.33a.38.38,0,0,1-.39.37.37.37,0,0,1-.37-.37v-2.76a.37.37,0,0,1,.37-.36.38.38,0,0,1,.39.36v0l.14-.14a1.56,1.56,0,0,1,.89-.27A.36.36,0,0,1,211.59,263.29Z" style="fill:#263238"></path><path d="M186.06,250.2h-.86v1.52a.39.39,0,1,1-.77,0v-4.13a.38.38,0,0,1,.38-.39h1.25a1.5,1.5,0,1,1,0,3Zm-.86-.78h.86a.72.72,0,1,0,0-1.44h-.86Z" style="fill:#263238"></path><path d="M190.52,251h-1.7l-.35.91a.38.38,0,0,1-.36.25l-.13,0a.4.4,0,0,1-.24-.51l1.55-4.12a.38.38,0,0,1,.37-.25.37.37,0,0,1,.37.25l1.55,4.12a.4.4,0,0,1-.23.51l-.13,0a.38.38,0,0,1-.36-.25Zm-.29-.77-.57-1.5-.56,1.5Z" style="fill:#263238"></path><path d="M195.42,247.86l-1.43,2v1.89a.38.38,0,0,1-.39.39.39.39,0,0,1-.38-.39v-1.89l-1.42-2a.36.36,0,0,1,.07-.53.38.38,0,0,1,.54.08l1.19,1.64,1.2-1.64a.38.38,0,0,1,.62.45Z" style="fill:#263238"></path><path d="M200.46,247.59v4.13a.4.4,0,0,1-.39.39.39.39,0,0,1-.39-.39v-2.95l-1,1.4a.37.37,0,0,1-.31.17h0a.4.4,0,0,1-.32-.17l-1-1.4v2.95a.39.39,0,0,1-.78,0v-4.13a.4.4,0,0,1,.39-.39h0a.38.38,0,0,1,.31.17l1.39,1.93,1.39-1.93a.39.39,0,0,1,.32-.17h0A.4.4,0,0,1,200.46,247.59Z" style="fill:#263238"></path><path d="M201.8,251.72v-4.13a.38.38,0,0,1,.39-.39h2.29a.39.39,0,0,1,0,.78h-1.9v1.28h1.63a.4.4,0,0,1,.38.39.38.38,0,0,1-.38.39h-1.63v1.29h1.9a.39.39,0,0,1,.38.39.4.4,0,0,1-.38.39h-2.27s0,0,0,0h0A.39.39,0,0,1,201.8,251.72Z" style="fill:#263238"></path><path d="M206.72,251.72a.38.38,0,1,1-.76,0v-4.07h0a.4.4,0,0,1,.15-.33.38.38,0,0,1,.53.09l2.27,3.13v-2.89a.38.38,0,0,1,.37-.38.39.39,0,0,1,.39.38v4.07a.39.39,0,0,1-.39.39A.38.38,0,0,1,209,252l0,0-2.24-3.11Z" style="fill:#263238"></path><path d="M214.28,248h-1.12v3.74a.38.38,0,0,1-.38.39.39.39,0,0,1-.39-.39V248h-1.1a.39.39,0,0,1-.39-.39.38.38,0,0,1,.39-.39h3a.38.38,0,0,1,.38.39A.39.39,0,0,1,214.28,248Z" style="fill:#263238"></path><path d="M217.7,249.59a2.57,2.57,0,0,1,2.57-2.53,2.63,2.63,0,0,1,1.61.55.4.4,0,1,1-.49.64,1.73,1.73,0,0,0-1.12-.39,1.84,1.84,0,0,0-1.26.51,1.7,1.7,0,0,0-.51,1.22,1.66,1.66,0,0,0,.51,1.21,1.84,1.84,0,0,0,1.26.51,1.7,1.7,0,0,0,1.12-.39.43.43,0,0,1,.57.08.42.42,0,0,1-.08.56,2.63,2.63,0,0,1-1.61.55A2.56,2.56,0,0,1,217.7,249.59Z" style="fill:#263238"></path><path d="M225.71,251H224l-.34.91a.38.38,0,0,1-.36.25l-.14,0a.4.4,0,0,1-.23-.51l1.55-4.12a.38.38,0,0,1,.37-.25.37.37,0,0,1,.37.25l1.55,4.12a.4.4,0,0,1-.23.51l-.13,0a.38.38,0,0,1-.36-.25Zm-.29-.77-.57-1.5-.57,1.5Z" style="fill:#263238"></path><path d="M231,251.53a.38.38,0,0,1-.25.49l-.15,0h0a.54.54,0,0,1-.27-.08.72.72,0,0,1-.22-.24,1.9,1.9,0,0,1-.15-.85.77.77,0,0,0-.08-.3.86.86,0,0,0-.22-.2,1.3,1.3,0,0,0-.39-.17h-.82v1.52a.4.4,0,0,1-.4.39.39.39,0,0,1-.38-.39v-4.13a.38.38,0,0,1,.38-.39h1.26a1.51,1.51,0,0,1,1.5,1.51,1.48,1.48,0,0,1-.55,1.15,1,1,0,0,1,.25.26,1.31,1.31,0,0,1,.23.75,2.08,2.08,0,0,0,0,.42A.36.36,0,0,1,231,251.53Zm-1-2.82a.72.72,0,0,0-.72-.73h-.86v1.44h.86A.71.71,0,0,0,230,248.71Z" style="fill:#263238"></path><path d="M232.1,251.72v-4.13a.38.38,0,0,1,.39-.39h.82a2.46,2.46,0,0,1,0,4.91h-.82A.39.39,0,0,1,232.1,251.72Zm.78-.39h.43a1.68,1.68,0,0,0,0-3.35h-.43Z" style="fill:#263238"></path><rect x="183.7" y="271.41" width="132.58" height="11.74" style="fill:#ebebeb"></rect><path d="M188.61,275.08v4.13a.38.38,0,0,1-.39.38.38.38,0,0,1-.39-.38v-3.45l-.28.17a.34.34,0,0,1-.19.05.39.39,0,0,1-.21-.72l.86-.51,0,0,0,0h.29l0,0,0,0,0,0,0,0,0,0,0,0h0v0a.06.06,0,0,1,0,0s0,0,0,0,0,0,0,0a.09.09,0,0,0,0,.05Z" style="fill:#c7c7c7"></path><path d="M192.66,279.21a.37.37,0,0,1-.38.38h-2.5a.38.38,0,0,1-.28-.12.38.38,0,0,1,0-.55l2.07-1.87a.91.91,0,0,0,.06-1.29.88.88,0,0,0-.67-.29,1,1,0,0,0-.61.23l-.21.2a.39.39,0,0,1-.52-.58l.21-.19a1.65,1.65,0,0,1,1.13-.44,1.67,1.67,0,0,1,1.25.56,1.64,1.64,0,0,1,.43,1.12,1.7,1.7,0,0,1-.55,1.25l-1.32,1.2h1.49A.38.38,0,0,1,192.66,279.21Z" style="fill:#c7c7c7"></path><path d="M196.28,276.62a1.66,1.66,0,0,1,.51,1.22,1.72,1.72,0,0,1-.51,1.24,1.75,1.75,0,0,1-1.23.51,1.79,1.79,0,0,1-1.23-.51.4.4,0,0,1,0-.56.39.39,0,0,1,.56,0,1,1,0,0,0,.67.27,1,1,0,0,0,.67-.27.94.94,0,0,0,.28-.68.9.9,0,0,0-.28-.66.94.94,0,0,0-.66-.28.32.32,0,0,1-.29-.13h0a.4.4,0,0,1,0-.56l.71-.73h-1.13a.39.39,0,0,1-.39-.4.38.38,0,0,1,.39-.39h2.06a.39.39,0,0,1,.4.39.41.41,0,0,1,0,.19.31.31,0,0,1-.07.09l-.88.92A1.49,1.49,0,0,1,196.28,276.62Z" style="fill:#c7c7c7"></path><path d="M201.64,278.29a.38.38,0,0,1-.39.39h-.07v.53a.39.39,0,0,1-.77,0v-.53h-2.2a.32.32,0,0,1-.24-.09.37.37,0,0,1-.07-.54l2.6-3.22h0l0,0,0,0,0,0,0,0,0,0h.3l0,0,0,0h0s0,0,0,0l0,0,0,0,0,0,0,0a.08.08,0,0,0,0,0v0s0,0,0,0v2.89h.07A.38.38,0,0,1,201.64,278.29Zm-1.23-2.11L199,277.91h1.39Z" style="fill:#c7c7c7"></path><path d="M207.23,276.63a1.73,1.73,0,0,1,0,2.45,1.69,1.69,0,0,1-1.23.51h0a1.68,1.68,0,0,1-1.22-.51.39.39,0,0,1,0-.56.4.4,0,0,1,.56,0,.91.91,0,0,0,.67.28.92.92,0,0,0,.67-.28.94.94,0,0,0,.28-.66,1,1,0,0,0-.95-.95.94.94,0,0,0-.67.28.4.4,0,0,1-.56,0l-.08-.1v0l0,0V277h0a.24.24,0,0,1,0-.12l.21-1.82a.43.43,0,0,1,.17-.28h0l0,0a.58.58,0,0,1,.19,0h2.06a.4.4,0,1,1,0,.79h-1.72l-.08.7a1.83,1.83,0,0,1,.46-.07A1.7,1.7,0,0,1,207.23,276.63Z" style="fill:#c7c7c7"></path><path d="M212.28,277.9a1.7,1.7,0,0,1-3.39.18v0c0-.13,0-.26,0-.4a4,4,0,0,1,.25-1.43,2.38,2.38,0,0,1,.9-1.2,2,2,0,0,1,1-.33.39.39,0,0,1,.41.37.41.41,0,0,1-.38.41,1.22,1.22,0,0,0-.66.19,1.5,1.5,0,0,0-.44.49l-.09.19a1.49,1.49,0,0,1,.67-.14A1.69,1.69,0,0,1,212.28,277.9Zm-.77,0a.93.93,0,0,0-1.85,0,.93.93,0,0,0,1.85,0Z" style="fill:#c7c7c7"></path><path d="M216.34,275.23l-1.75,4.13a.37.37,0,0,1-.36.23.41.41,0,0,1-.15,0,.41.41,0,0,1-.21-.51l1.51-3.59h-1.8a.4.4,0,0,1-.39-.39.39.39,0,0,1,.39-.39h2.47l.15.06,0,0,0,0a0,0,0,0,0,0,0l0,0,0,0s0,0,0,0v0l0,0a.38.38,0,0,1,0,.15A.24.24,0,0,0,216.34,275.23Z" style="fill:#c7c7c7"></path><path d="M220.52,277.93a1.68,1.68,0,1,1-2.6-1.4,1.08,1.08,0,0,1-.23-.69,1.16,1.16,0,0,1,2.31,0,1.14,1.14,0,0,1-.23.69A1.73,1.73,0,0,1,220.52,277.93Zm-.77,0a.9.9,0,0,0-.9-.91.91.91,0,1,0,0,1.81A.9.9,0,0,0,219.75,277.93Zm-1.3-2.09a.39.39,0,0,0,.4.4.39.39,0,0,0,.38-.4.38.38,0,0,0-.38-.38A.38.38,0,0,0,218.45,275.84Z" style="fill:#c7c7c7"></path><path d="M223.75,276.39a1.71,1.71,0,0,1,3.4-.18v0c0,.13,0,.26,0,.4a4,4,0,0,1-.25,1.43,2.46,2.46,0,0,1-.9,1.2,2.14,2.14,0,0,1-1.05.33.4.4,0,0,1-.41-.37.41.41,0,0,1,.38-.41,1.26,1.26,0,0,0,.66-.2,1.41,1.41,0,0,0,.44-.49l.09-.18a1.64,1.64,0,0,1-.67.14A1.7,1.7,0,0,1,223.75,276.39Zm.78,0a.93.93,0,0,0,1.85,0,.93.93,0,0,0-1.85,0Z" style="fill:#c7c7c7"></path><path d="M228.24,277.14a3,3,0,0,1,.48-1.67,1.57,1.57,0,0,1,1.3-.78,1.6,1.6,0,0,1,1.3.78,3,3,0,0,1,.47,1.67,3,3,0,0,1-.47,1.68,1.61,1.61,0,0,1-1.3.77,1.58,1.58,0,0,1-1.3-.77A3,3,0,0,1,228.24,277.14Zm2.77,0a2.27,2.27,0,0,0-.34-1.24.79.79,0,0,0-.65-.43.81.81,0,0,0-.66.43,2.27,2.27,0,0,0-.34,1.24,2.25,2.25,0,0,0,.34,1.24.85.85,0,0,0,.66.44.83.83,0,0,0,.65-.44A2.25,2.25,0,0,0,231,277.14Z" style="fill:#c7c7c7"></path><path d="M234.63,275.08v4.13a.38.38,0,0,1-.39.38.37.37,0,0,1-.38-.38v-3.45l-.28.17a.39.39,0,0,1-.2.05.39.39,0,0,1-.33-.19.38.38,0,0,1,.13-.53l.86-.51,0,0,0,0h.3l0,0s0,0,0,0l0,0,0,0,0,0,0,0h0v0s0,0,0,0a0,0,0,0,1,0,0s0,0,0,0a.09.09,0,0,0,0,.05Z" style="fill:#c7c7c7"></path><path d="M238.69,279.21a.38.38,0,0,1-.39.38h-2.49a.39.39,0,0,1-.27-.67l2.08-1.87a.9.9,0,0,0,.29-.68,1,1,0,0,0-.23-.61.9.9,0,0,0-.67-.29.93.93,0,0,0-.61.23l-.22.2a.39.39,0,1,1-.52-.58l.22-.19a1.65,1.65,0,0,1,1.13-.44,1.67,1.67,0,0,1,1.24.56,1.6,1.6,0,0,1,.44,1.12,1.67,1.67,0,0,1-.56,1.25l-1.32,1.2h1.49A.38.38,0,0,1,238.69,279.21Z" style="fill:#c7c7c7"></path><path d="M244.41,276.62a1.7,1.7,0,0,1,.51,1.22,1.77,1.77,0,0,1-.51,1.24,1.79,1.79,0,0,1-1.24.51,1.74,1.74,0,0,1-1.22-.51.4.4,0,1,1,.56-.56.93.93,0,0,0,.66.27,1,1,0,0,0,.68-.27.94.94,0,0,0,.28-.68.9.9,0,0,0-.28-.66,1,1,0,0,0-.67-.28.33.33,0,0,1-.29-.13h0a.41.41,0,0,1,0-.56l.72-.73h-1.14a.4.4,0,0,1-.39-.4.39.39,0,0,1,.39-.39h2.07a.39.39,0,0,1,.4.39.41.41,0,0,1,0,.19.31.31,0,0,1-.07.09l-.88.92A1.49,1.49,0,0,1,244.41,276.62Z" style="fill:#c7c7c7"></path><path d="M249.77,278.29a.39.39,0,0,1-.39.39h-.07v.53a.39.39,0,0,1-.77,0v-.53h-2.21a.33.33,0,0,1-.24-.09.38.38,0,0,1-.06-.54l2.59-3.22h0l0,0,0,0,0,0,0,0,0,0h.29l0,0,0,0h0s0,0,0,0l0,0,0,0,0,0s0,0,0,0l0,0v0s0,0,0,0,0,0,0,0v2.85h.07A.39.39,0,0,1,249.77,278.29Zm-1.23-2.11-1.4,1.73h1.4Z" style="fill:#c7c7c7"></path><path d="M253.25,276.63a1.68,1.68,0,0,1,.52,1.23,1.71,1.71,0,0,1-.52,1.22,1.66,1.66,0,0,1-1.22.51h0a1.64,1.64,0,0,1-1.21-.51.37.37,0,0,1,0-.56.4.4,0,0,1,.56,0,.94.94,0,1,0,.67-1.61.92.92,0,0,0-.67.28.4.4,0,0,1-.56,0l-.08-.1s0,0,0,0a0,0,0,0,0,0,0,.43.43,0,0,0,0-.05h0v-.12l.21-1.82a.45.45,0,0,1,.18-.28h0l0,0a.48.48,0,0,1,.18,0h2.07a.4.4,0,1,1,0,.79h-1.73l-.08.7a1.91,1.91,0,0,1,.47-.07A1.67,1.67,0,0,1,253.25,276.63Z" style="fill:#c7c7c7"></path><path d="M258.31,277.9a1.7,1.7,0,0,1-3.39.18v0c0-.13,0-.26,0-.4a4.17,4.17,0,0,1,.24-1.43,2.45,2.45,0,0,1,.91-1.2,1.92,1.92,0,0,1,1.05-.33.38.38,0,0,1,.4.37.4.4,0,0,1-.37.41,1.22,1.22,0,0,0-.66.19,1.4,1.4,0,0,0-.44.49,1.14,1.14,0,0,0-.1.19,1.56,1.56,0,0,1,.68-.14A1.69,1.69,0,0,1,258.31,277.9Zm-.78,0a.92.92,0,1,0-.92.92A.92.92,0,0,0,257.53,277.9Z" style="fill:#c7c7c7"></path><path d="M184.43,293.32v-4.13a.38.38,0,0,1,.38-.39h2.29a.4.4,0,0,1,.39.39.4.4,0,0,1-.39.39h-1.9v1.28h1.64a.39.39,0,0,1,.38.38.39.39,0,0,1-.38.4H185.2v1.29h1.9a.39.39,0,1,1,0,.77h-2.29A.37.37,0,0,1,184.43,293.32Z" style="fill:#263238"></path><path d="M191,290.82l-.84,1.15.84,1.15a.37.37,0,0,1-.07.51.48.48,0,0,1-.23.07.44.44,0,0,1-.3-.15l-.7-1-.7,1a.4.4,0,0,1-.29.15.48.48,0,0,1-.23-.07.36.36,0,0,1-.07-.51l.84-1.15-.84-1.15a.35.35,0,0,1,.07-.5.38.38,0,0,1,.52.08l.7.94.7-.94a.39.39,0,0,1,.53-.08A.36.36,0,0,1,191,290.82Z" style="fill:#263238"></path><path d="M192.49,294.64V292h0v-1.39a.38.38,0,0,1,.37-.37.38.38,0,0,1,.39.29,1.69,1.69,0,0,1,2.64,1.47,1.72,1.72,0,0,1-1.69,1.74,1.64,1.64,0,0,1-.94-.29v1.23a.39.39,0,0,1-.4.38A.38.38,0,0,1,192.49,294.64Zm.77-2.68a.94.94,0,0,0,.27.7.87.87,0,0,0,.67.29.89.89,0,0,0,.66-.29,1,1,0,0,0,.27-.7,1.09,1.09,0,0,0-.27-.71.93.93,0,0,0-.66-.29.9.9,0,0,0-.67.29A1,1,0,0,0,193.26,292Z" style="fill:#263238"></path><path d="M197.66,289.33a.37.37,0,0,1-.38.38.38.38,0,0,1-.38-.38v-.15a.38.38,0,0,1,.38-.38.37.37,0,0,1,.38.38Zm0,1.26v2.73a.37.37,0,0,1-.38.38.37.37,0,0,1-.38-.38v-2.73a.37.37,0,0,1,.38-.38A.37.37,0,0,1,197.66,290.59Z" style="fill:#263238"></path><path d="M201,290.57a.37.37,0,0,1-.37.37.64.64,0,0,0-.42.14,1,1,0,0,0-.33.33,2.23,2.23,0,0,0-.28.59v1.33a.38.38,0,0,1-.39.37.37.37,0,0,1-.37-.37v-2.76a.37.37,0,0,1,.37-.36.38.38,0,0,1,.39.36v.05a.93.93,0,0,1,.14-.14,1.56,1.56,0,0,1,.89-.27A.36.36,0,0,1,201,290.57Z" style="fill:#263238"></path><path d="M204.72,292v1.37a.37.37,0,0,1-.37.37.39.39,0,0,1-.37-.3,1.57,1.57,0,0,1-.93.3,1.61,1.61,0,0,1-1.19-.51,1.78,1.78,0,0,1-.47-1.23,1.76,1.76,0,0,1,.47-1.23,1.6,1.6,0,0,1,1.19-.53,1.57,1.57,0,0,1,.93.31.39.39,0,0,1,.37-.31.38.38,0,0,1,.37.38Zm-.74,0a1.06,1.06,0,0,0-.27-.72.88.88,0,0,0-.66-.29.84.84,0,0,0-.65.29,1,1,0,0,0-.26.72,1,1,0,0,0,.26.72.86.86,0,0,0,.65.27.9.9,0,0,0,.66-.27A1.08,1.08,0,0,0,204,292Z" style="fill:#263238"></path><path d="M207.67,290.59a.4.4,0,0,1-.4.38h-.17v2a.38.38,0,0,1,.38.39.37.37,0,0,1-.38.38.78.78,0,0,1-.78-.77v-2h-.2a.39.39,0,1,1,0-.77h.2v-1a.39.39,0,0,1,.39-.39.38.38,0,0,1,.39.39v1h.17A.4.4,0,0,1,207.67,290.59Z" style="fill:#263238"></path><path d="M209.65,289.33a.37.37,0,0,1-.37.38.38.38,0,0,1-.38-.38v-.15a.38.38,0,0,1,.38-.38.37.37,0,0,1,.37.38Zm0,1.26v2.73a.37.37,0,0,1-.37.38.37.37,0,0,1-.38-.38v-2.73a.37.37,0,0,1,.38-.38A.37.37,0,0,1,209.65,290.59Z" style="fill:#263238"></path><path d="M211.18,293.19a1.75,1.75,0,0,1-.48-1.23,1.82,1.82,0,0,1,.48-1.23,1.63,1.63,0,0,1,1.2-.53,1.52,1.52,0,0,1,1.17.53A1.74,1.74,0,0,1,214,292a1.67,1.67,0,0,1-.49,1.23,1.52,1.52,0,0,1-1.17.53A1.63,1.63,0,0,1,211.18,293.19Zm.28-1.23a1.14,1.14,0,0,0,.25.74,1,1,0,0,0,.67.26.92.92,0,0,0,.65-.26,1.1,1.1,0,0,0,.27-.74,1.08,1.08,0,0,0-.27-.73,1,1,0,0,0-.65-.27,1.06,1.06,0,0,0-.67.27A1.11,1.11,0,0,0,211.46,292Z" style="fill:#263238"></path><path d="M218.15,291.66v1.67a.36.36,0,0,1-.36.37.37.37,0,0,1-.37-.37v-1.67a.72.72,0,0,0-.73-.71.7.7,0,0,0-.7.71v1.67a.11.11,0,0,1,0,.07.37.37,0,0,1-.37.3.36.36,0,0,1-.37-.37v-2.76a.37.37,0,0,1,.37-.37.4.4,0,0,1,.35.22,1.43,1.43,0,0,1,.74-.22A1.47,1.47,0,0,1,218.15,291.66Z" style="fill:#263238"></path><path d="M224.8,293.32a.38.38,0,0,1-.38.38.37.37,0,0,1-.37-.3,1.73,1.73,0,1,1-1-3.2,1.6,1.6,0,0,1,.94.3v-1.32a.39.39,0,0,1,.77,0V292h0ZM223.09,291a.89.89,0,0,0-.65.29,1,1,0,0,0-.28.71,1,1,0,0,0,.28.69.88.88,0,0,0,1.31,0A1,1,0,0,0,224,292a1,1,0,0,0-.28-.71A.9.9,0,0,0,223.09,291Z" style="fill:#263238"></path><path d="M229.21,292v1.37a.37.37,0,0,1-.37.37.38.38,0,0,1-.37-.3,1.62,1.62,0,0,1-2.12-.21,1.78,1.78,0,0,1-.48-1.23,1.77,1.77,0,0,1,.48-1.23,1.58,1.58,0,0,1,1.19-.53,1.6,1.6,0,0,1,.93.31.37.37,0,0,1,.74.07Zm-.75,0a1,1,0,0,0-.27-.72.87.87,0,0,0-.65-.29.84.84,0,0,0-.65.29,1,1,0,0,0-.27.72,1,1,0,0,0,.27.72.86.86,0,0,0,.65.27.89.89,0,0,0,.65-.27A1,1,0,0,0,228.46,292Z" style="fill:#263238"></path><path d="M232.15,290.59a.39.39,0,0,1-.39.38h-.17v2a.38.38,0,0,1,.38.39.37.37,0,0,1-.38.38.78.78,0,0,1-.78-.77v-2h-.21a.39.39,0,0,1,0-.77h.21v-1a.39.39,0,1,1,.78,0v1h.17A.39.39,0,0,1,232.15,290.59Z" style="fill:#263238"></path><path d="M232.85,292a1.74,1.74,0,0,1,1.71-1.75,1.68,1.68,0,0,1,1.69,1.63v0s0,.05,0,.06a.33.33,0,0,1-.36.28h-2.23a.85.85,0,0,0,.24.47,1.13,1.13,0,0,0,.67.31,1.19,1.19,0,0,0,.73-.17.37.37,0,0,1,.52,0,.3.3,0,0,1,0,.45,1.77,1.77,0,0,1-3-1.29Zm.77-.34h2a1.15,1.15,0,0,0-1-.74A1,1,0,0,0,233.62,291.61Z" style="fill:#263238"></path><path d="M252.44,291.18a2.59,2.59,0,0,1,4.18-2,.4.4,0,1,1-.49.63,1.73,1.73,0,0,0-1.12-.38,1.83,1.83,0,0,0-1.26.5,1.72,1.72,0,0,0-.51,1.22,1.68,1.68,0,0,0,.51,1.22,1.83,1.83,0,0,0,1.26.5,1.74,1.74,0,0,0,1.12-.38.44.44,0,0,1,.57.08.42.42,0,0,1-.08.56,2.62,2.62,0,0,1-1.61.54A2.55,2.55,0,0,1,252.44,291.18Z" style="fill:#263238"></path><path d="M259.65,293.63l0,0s0,0,0,0l0,0a0,0,0,0,1,0,0l0-.06-1.71-4.09a.37.37,0,0,1,.21-.5.39.39,0,0,1,.5.21l1.36,3.24,1.37-3.24a.38.38,0,0,1,.71.29l-1.73,4.09s0,0,0,.06h0l0,0v0l0,0h0a.09.09,0,0,1-.05,0h0l-.05,0h-.17l-.06,0h0s0,0-.07,0Z" style="fill:#263238"></path><path d="M264.83,293.63l-.05,0s0,0,0,0l0,0a0,0,0,0,1,0,0l0-.06L263,289.38a.37.37,0,0,1,.21-.5.39.39,0,0,1,.5.21l1.36,3.24,1.37-3.24a.38.38,0,0,1,.71.29l-1.73,4.09a.09.09,0,0,1,0,.06h0l0,0v0l0,0h0a.09.09,0,0,1-.05,0h0l-.05,0H265l-.06,0h0s0,0-.07,0Z" style="fill:#263238"></path><rect x="251.93" y="298.69" width="64.36" height="19.45" style="fill:#ebebeb"></rect><path d="M259.13,305.57a.39.39,0,0,1-.39.39h-.07v.53a.38.38,0,0,1-.39.38.37.37,0,0,1-.38-.38V306h-2.21a.36.36,0,0,1-.24-.09.37.37,0,0,1-.06-.54l2.59-3.22h0l0,0,0,0,0,0,0,0s0,0,0,0h.29l0,0,0,0h0l0,0,0,0,0,0,0,0a0,0,0,0,0,0,0s0,0,0,0v0s0,0,0,0v2.89h.07A.39.39,0,0,1,259.13,305.57Zm-1.23-2.12-1.4,1.74h1.4Z" style="fill:#c7c7c7"></path><path d="M262.61,303.9a1.74,1.74,0,0,1-1.22,3h0a1.68,1.68,0,0,1-1.21-.51.37.37,0,0,1,0-.56.39.39,0,0,1,.55,0,.94.94,0,0,0,.68.28.9.9,0,0,0,.66-.28.92.92,0,0,0,.28-.66.93.93,0,0,0-.28-.68.89.89,0,0,0-.66-.27,1,1,0,0,0-.68.27.38.38,0,0,1-.55,0,.73.73,0,0,1-.08-.09s0,0,0,0a.1.1,0,0,0,0,0,.43.43,0,0,0,0-.05v-.14l.21-1.81a.42.42,0,0,1,.18-.28h0l0,0a.34.34,0,0,1,.18,0h2.07a.4.4,0,0,1,0,.79H261l-.08.69a1.84,1.84,0,0,1,.47-.06A1.7,1.7,0,0,1,262.61,303.9Z" style="fill:#c7c7c7"></path><path d="M267.67,305.18a1.7,1.7,0,0,1-1.7,1.69,1.68,1.68,0,0,1-1.69-1.52h0c0-.13,0-.27,0-.4a4.27,4.27,0,0,1,.24-1.44,2.41,2.41,0,0,1,.91-1.19,1.92,1.92,0,0,1,1-.33.38.38,0,0,1,.4.37.4.4,0,0,1-.38.4,1.31,1.31,0,0,0-.65.2,1.42,1.42,0,0,0-.45.49l-.09.18a1.72,1.72,0,0,1,.68-.14A1.7,1.7,0,0,1,267.67,305.18Zm-.78,0a.92.92,0,1,0-1.84,0,.92.92,0,0,0,1.84,0Z" style="fill:#c7c7c7"></path><rect x="183.7" y="298.69" width="64.36" height="19.45" style="fill:#ebebeb"></rect><path d="M188.61,302.36v4.13a.39.39,0,0,1-.39.38.38.38,0,0,1-.39-.38V303l-.28.16a.29.29,0,0,1-.19.06.39.39,0,0,1-.21-.72L188,302l0,0,0,0h.29l0,0,0,0,0,0,0,0s0,0,0,0l0,0h0v0s0,0,0,0l0,0s0,0,0,0,0,0,0,0Z" style="fill:#c7c7c7"></path><path d="M191,302.36v4.13a.39.39,0,0,1-.39.38.38.38,0,0,1-.38-.38V303l-.28.16a.33.33,0,0,1-.2.06.38.38,0,0,1-.33-.2.37.37,0,0,1,.13-.52l.86-.51,0,0,0,0h.3l0,0,0,0,0,0,0,0s0,0,0,0l0,0h0v0s0,0,0,0a0,0,0,0,1,0,0s0,0,0,0,0,0,0,0Z" style="fill:#c7c7c7"></path><path d="M194.08,306.34l1.72-4.08a.38.38,0,1,1,.71.29l-1.72,4.09a.38.38,0,0,1-.36.23.36.36,0,0,1-.14,0A.39.39,0,0,1,194.08,306.34Z" style="fill:#c7c7c7"></path><path d="M199,304.42a2.93,2.93,0,0,1,.47-1.67,1.47,1.47,0,0,1,2.6,0,3,3,0,0,1,.47,1.67,3,3,0,0,1-.47,1.68,1.48,1.48,0,0,1-2.6,0A3,3,0,0,1,199,304.42Zm2.76,0a2.43,2.43,0,0,0-.33-1.25.82.82,0,0,0-.65-.42.84.84,0,0,0-.67.42,2.34,2.34,0,0,0-.34,1.25,2.25,2.25,0,0,0,.34,1.24.87.87,0,0,0,.67.44.85.85,0,0,0,.65-.44A2.34,2.34,0,0,0,201.76,304.42Z" style="fill:#c7c7c7"></path><path d="M207.71,305.57a.38.38,0,0,1-.39.39h-.07v.53a.39.39,0,0,1-.77,0V306h-2.21a.35.35,0,0,1-.23-.09.37.37,0,0,1-.07-.54l2.59-3.22h0l0,0,0,0,0,0s0,0,.05,0l0,0h.3l0,0s0,0,0,0h0l0,0,0,0,0,0,0,0,0,0a.08.08,0,0,0,0,0v3h.07A.38.38,0,0,1,207.71,305.57Zm-1.23-2.12-1.39,1.74h1.39Z" style="fill:#c7c7c7"></path><polygon points="183.7 235.14 200.27 235.02 216.84 234.98 249.99 234.89 283.14 234.97 299.71 235.02 316.28 235.14 299.71 235.26 283.14 235.31 249.99 235.39 216.84 235.31 200.27 235.26 183.7 235.14" style="fill:#ebebeb"></polygon><path d="M242.69,341.73h-1.11v3.74a.39.39,0,0,1-.77,0v-3.74H239.7a.4.4,0,0,1-.39-.4.38.38,0,0,1,.39-.38h3a.39.39,0,0,1,.39.38A.41.41,0,0,1,242.69,341.73Z" style="fill:#263238"></path><path d="M247.71,341.56a2.56,2.56,0,0,1,0,3.54,2.27,2.27,0,0,1-1.67.75,2.35,2.35,0,0,1-1.72-.75,2.62,2.62,0,0,1,0-3.54,2.35,2.35,0,0,1,1.72-.75A2.27,2.27,0,0,1,247.71,341.56Zm-.09,1.77a1.81,1.81,0,0,0-.48-1.23,1.5,1.5,0,0,0-1.1-.49,1.56,1.56,0,0,0-1.14.49,1.8,1.8,0,0,0-.47,1.23,1.76,1.76,0,0,0,.47,1.22,1.57,1.57,0,0,0,1.14.5,1.51,1.51,0,0,0,1.1-.5A1.77,1.77,0,0,0,247.62,343.33Z" style="fill:#263238"></path><path d="M252.41,341.73h-1.12v3.74a.38.38,0,0,1-.38.38.39.39,0,0,1-.39-.38v-3.74h-1.1a.4.4,0,0,1-.39-.4.38.38,0,0,1,.39-.38h3a.38.38,0,0,1,.38.38A.4.4,0,0,1,252.41,341.73Z" style="fill:#263238"></path><path d="M255.78,344.7h-1.7l-.34.91a.4.4,0,0,1-.37.24l-.13,0a.4.4,0,0,1-.23-.5l1.54-4.13a.43.43,0,0,1,.38-.25.41.41,0,0,1,.37.25l1.54,4.13a.38.38,0,0,1-.23.5l-.13,0a.39.39,0,0,1-.36-.24Zm-.29-.78-.56-1.5-.57,1.5Z" style="fill:#263238"></path><path d="M257.8,345.47v-4.14a.38.38,0,0,1,.39-.38.39.39,0,0,1,.39.38v3.74h1.9a.4.4,0,0,1,.38.4.39.39,0,0,1-.38.38h-2.29A.38.38,0,0,1,257.8,345.47Z" style="fill:#263238"></path><path d="M227.27,351.1a.64.64,0,0,1,.65.64v.33a5.47,5.47,0,0,1,2.32.83.79.79,0,0,1,.45.71.82.82,0,0,1-.84.83.86.86,0,0,1-.45-.13,5.23,5.23,0,0,0-1.54-.66v2.88c2.28.57,3.25,1.48,3.25,3.08s-1.29,2.75-3.19,2.93v.9a.64.64,0,0,1-.65.64.65.65,0,0,1-.66-.64v-.93a6.42,6.42,0,0,1-3.07-1.17.81.81,0,0,1-.41-.72.82.82,0,0,1,1.32-.66,5.38,5.38,0,0,0,2.22,1v-3c-2.19-.57-3.21-1.4-3.21-3.09s1.28-2.71,3.15-2.86v-.32A.65.65,0,0,1,227.27,351.1Zm-.6,5.11v-2.65c-1,.09-1.44.6-1.44,1.26S225.52,355.84,226.67,356.21Zm1.19,2.09V361c1-.11,1.48-.59,1.48-1.31S229,358.66,227.86,358.3Z" style="fill:#263238"></path><path d="M235.79,352.86v8.85a.84.84,0,0,1-.84.83.81.81,0,0,1-.82-.83v-7.37l-.6.34a.77.77,0,0,1-.42.12.84.84,0,0,1-.44-1.54l1.85-1.1.06,0s0,0,.07,0l.09,0h.06a.22.22,0,0,1,.11,0h.16a.08.08,0,0,0,.06,0,.12.12,0,0,1,.09,0h.06c.05,0,.06,0,.09,0s0,0,.06,0,0,0,.06.05a.12.12,0,0,1,.06.06s0,0,0,.06l.06.06v0l0,0s0,.05,0,.08,0,.06,0,.07,0,.06,0,.08a.12.12,0,0,0,0,.1Z" style="fill:#263238"></path><path d="M244.48,361.71a.82.82,0,0,1-.83.83h-5.34a.8.8,0,0,1-.61-.27.82.82,0,0,1,0-1.17l4.44-4a1.86,1.86,0,0,0,.63-1.44,1.92,1.92,0,0,0-.49-1.3,1.89,1.89,0,0,0-1.44-.63,2,2,0,0,0-1.31.49l-.46.42a.81.81,0,0,1-1.17-.06.83.83,0,0,1,.06-1.17l.46-.42a3.55,3.55,0,0,1,2.42-.93,3.63,3.63,0,0,1,2.67,1.19,3.51,3.51,0,0,1,.93,2.41,3.62,3.62,0,0,1-1.19,2.67l-2.83,2.56h3.19A.83.83,0,0,1,244.48,361.71Z" style="fill:#263238"></path><path d="M246.56,355.67a3.64,3.64,0,0,1,7.26-.37l0,0c0,.28,0,.57,0,.85a8.69,8.69,0,0,1-.53,3.08,5.27,5.27,0,0,1-1.93,2.56,4.41,4.41,0,0,1-2.25.71.84.84,0,0,1-.87-.8.86.86,0,0,1,.81-.87,2.7,2.7,0,0,0,1.41-.42,3,3,0,0,0,.94-1.05,2.38,2.38,0,0,0,.2-.39,3.47,3.47,0,0,1-1.44.3A3.64,3.64,0,0,1,246.56,355.67Zm1.67,0a2,2,0,1,0,3.94,0,2,2,0,0,0-3.94,0Z" style="fill:#263238"></path><path d="M257.39,360.41a1.12,1.12,0,1,1,0,2.24,1.12,1.12,0,0,1,0-2.24Z" style="fill:#263238"></path><path d="M259.49,355.67a3.64,3.64,0,0,1,7.26-.37l0,0c0,.28,0,.57,0,.85a8.69,8.69,0,0,1-.53,3.08,5.27,5.27,0,0,1-1.93,2.56,4.41,4.41,0,0,1-2.25.71.84.84,0,0,1-.87-.8.86.86,0,0,1,.81-.87,2.7,2.7,0,0,0,1.41-.42,3,3,0,0,0,.94-1.05,2.38,2.38,0,0,0,.2-.39,3.47,3.47,0,0,1-1.44.3A3.64,3.64,0,0,1,259.49,355.67Zm1.67,0a2,2,0,1,0,3.94,0,2,2,0,0,0-3.94,0Z" style="fill:#263238"></path><path d="M269.12,355.67a3.64,3.64,0,0,1,7.26-.37l0,0c0,.28,0,.57,0,.85a8.69,8.69,0,0,1-.53,3.08,5.27,5.27,0,0,1-1.93,2.56,4.41,4.41,0,0,1-2.25.71.84.84,0,0,1-.87-.8.86.86,0,0,1,.81-.87,2.7,2.7,0,0,0,1.41-.42,3,3,0,0,0,.94-1.05,2.38,2.38,0,0,0,.2-.39,3.47,3.47,0,0,1-1.44.3A3.64,3.64,0,0,1,269.12,355.67Zm1.67,0a2,2,0,1,0,3.94,0,2,2,0,0,0-3.94,0Z" style="fill:#263238"></path><polygon points="183.7 330.45 200.27 330.33 216.84 330.28 249.99 330.2 283.14 330.28 299.71 330.33 316.28 330.45 299.71 330.57 283.14 330.62 249.99 330.7 216.84 330.62 200.27 330.57 183.7 330.45" style="fill:#ebebeb"></polygon><rect x="220.53" y="375.42" width="57.84" height="16.11" style="fill:#FFC727"></rect><path d="M240.51,384.09h-.86v1.52a.39.39,0,0,1-.77,0v-4.13a.38.38,0,0,1,.38-.39h1.25a1.5,1.5,0,1,1,0,3Zm-.86-.78h.86a.72.72,0,1,0,0-1.44h-.86Z" style="fill:#fff"></path><path d="M245,384.84h-1.71l-.34.91a.39.39,0,0,1-.36.24.34.34,0,0,1-.14,0,.39.39,0,0,1-.23-.5l1.55-4.13a.39.39,0,0,1,.37-.24.38.38,0,0,1,.37.24l1.55,4.13a.39.39,0,0,1-.23.5.27.27,0,0,1-.13,0,.38.38,0,0,1-.36-.24Zm-.29-.77-.57-1.51-.57,1.51Z" style="fill:#fff"></path><path d="M249.87,381.75l-1.43,2v1.89a.39.39,0,0,1-.77,0v-1.89l-1.42-2a.36.36,0,0,1,.07-.53.38.38,0,0,1,.54.08l1.19,1.64,1.2-1.64a.38.38,0,0,1,.54-.08A.38.38,0,0,1,249.87,381.75Z" style="fill:#fff"></path><path d="M253.56,385.61a.38.38,0,0,1-.76,0v-4.07h0a.38.38,0,0,1,.15-.32.39.39,0,0,1,.53.08l2.27,3.13v-2.88a.38.38,0,0,1,.37-.38.39.39,0,0,1,.39.38v4.07a.38.38,0,0,1-.39.38.35.35,0,0,1-.28-.14l0,0-2.24-3.11Z" style="fill:#fff"></path><path d="M261.7,381.7a2.55,2.55,0,0,1,.71,1.77,2.51,2.51,0,0,1-.71,1.77A2.27,2.27,0,0,1,260,386a2.36,2.36,0,0,1-1.72-.75,2.54,2.54,0,0,1-.69-1.77,2.57,2.57,0,0,1,.69-1.77A2.36,2.36,0,0,1,260,381,2.27,2.27,0,0,1,261.7,381.7Zm-.09,1.77a1.83,1.83,0,0,0-.47-1.22,1.51,1.51,0,0,0-1.11-.5,1.49,1.49,0,0,0-1.13.5,1.74,1.74,0,0,0-.48,1.22,1.72,1.72,0,0,0,.48,1.22,1.5,1.5,0,0,0,1.13.51,1.52,1.52,0,0,0,1.11-.51A1.81,1.81,0,0,0,261.61,383.47Z" style="fill:#fff"></path><path d="M270,381.67l-1.72,4.08a.15.15,0,0,1,0,.07h0l0,0v0l-.05,0h0s0,0-.06.05h0l-.06,0h-.17l0,0h0a.1.1,0,0,1-.06-.05h0l0,0v0l0,0h0a.14.14,0,0,1,0-.07l-.92-2.17-.92,2.17,0,.07h0a.08.08,0,0,0,0,0v0l0,0h0l-.05.05h0a.06.06,0,0,0,0,0h-.18l-.05,0h0a.15.15,0,0,1-.06-.05h0l-.05,0,0,0,0,0h0l0-.07-1.72-4.08a.38.38,0,1,1,.71-.29l1.37,3.24.91-2.15a.39.39,0,0,1,.36-.24.4.4,0,0,1,.36.24l.91,2.15,1.36-3.24a.39.39,0,0,1,.51-.21A.39.39,0,0,1,270,381.67Z" style="fill:#fff"></path><rect x="228.87" y="382.84" width="5.31" height="3.9" style="fill:#fff"></rect><path d="M233.53,383.08h-.75c0-1.86-.3-2.49-1.19-2.49s-1.33.6-1.33,2.49h-.75c0-1.14,0-3.24,2.08-3.24S233.53,381.94,233.53,383.08Z" style="fill:#fff"></path><circle cx="268.52" cy="137.29" r="7.95" style="fill:#FFC727"></circle><circle cx="230.38" cy="157.7" r="7.95" style="fill:#ebebeb"></circle><path d="M269.43,136.36l.06,21.86a2.2,2.2,0,0,1-2.2,2.21l-34.67.09a2.21,2.21,0,0,1-2.22-2.2l-.05-21.86a2,2,0,0,1,2.05-2.06l35-.09A2,2,0,0,1,269.43,136.36Z" style="fill:#455a64"></path><path d="M263.85,155.15a2,2,0,1,1-2-2A2,2,0,0,1,263.85,155.15Z" style="fill:#fff"></path><path d="M266.36,155.14a2,2,0,1,1-2-2A2,2,0,0,1,266.36,155.14Z" style="fill:#FFC727"></path><path d="M238.45,143.2h-2.26a2.55,2.55,0,0,1-2.55-2.53h0a2.54,2.54,0,0,1,2.53-2.54h2.27a2.54,2.54,0,0,1,2.54,2.53h0A2.54,2.54,0,0,1,238.45,143.2Z" style="fill:#FFC727"></path><path d="M264.93,140.85h-3.32a1.39,1.39,0,0,1-1.4-1.38h0a1.4,1.4,0,0,1,1.39-1.4h3.32a1.39,1.39,0,0,1,1.39,1.39h0A1.39,1.39,0,0,1,264.93,140.85Z" style="fill:#fff"></path><path d="M233.39,147.84l-.3.18h0a.08.08,0,0,1-.07,0,.07.07,0,0,1,0-.1l.41-.25a.08.08,0,0,1,.1,0,.11.11,0,0,1,0,.05v2a.07.07,0,0,1-.14,0Z" style="fill:#fff"></path><path d="M234.07,149.62l1-.9a.54.54,0,0,0,.18-.41.51.51,0,0,0-.15-.36.52.52,0,0,0-.4-.18.59.59,0,0,0-.37.14l-.1.1a.08.08,0,0,1-.11,0,.07.07,0,0,1,0-.1l.1-.1a.69.69,0,0,1,.47-.18.66.66,0,0,1,.51.23.64.64,0,0,1,.18.46.67.67,0,0,1-.22.52l-.85.77h1a.08.08,0,0,1,.07.07.09.09,0,0,1-.07.08h-1.2s-.05,0-.06,0A.09.09,0,0,1,234.07,149.62Z" style="fill:#fff"></path><path d="M237.14,147.75l-.55.57a.66.66,0,0,1,.37.19.72.72,0,0,1,0,1,.79.79,0,0,1-.51.22.7.7,0,0,1-.51-.22.07.07,0,0,1,0-.1.08.08,0,0,1,.11,0,.55.55,0,0,0,.4.16.58.58,0,0,0,.4-.17.56.56,0,0,0,0-.8.58.58,0,0,0-.4-.17.06.06,0,0,1-.06,0h0a.08.08,0,0,1,0-.11l.53-.54h-.81a.07.07,0,0,1-.08-.08.07.07,0,0,1,.08-.07h1a.09.09,0,0,1,.08.08v0Z" style="fill:#fff"></path><path d="M238.93,149.3h-1.2a.06.06,0,0,1,0-.1l1.22-1.54h0a.06.06,0,0,1,.1,0l0,0v0h0v1.46h.14a.08.08,0,0,1,.08.08.07.07,0,0,1-.07.07h-.15v.37a.08.08,0,0,1-.07.07.08.08,0,0,1-.08-.07Zm0-.15v-1.24l-1,1.25Z" style="fill:#fff"></path><path d="M241.6,149.52a.07.07,0,0,1,0-.1.07.07,0,0,1,.11,0,.61.61,0,0,0,.4.16.56.56,0,0,0,.4-.17.54.54,0,0,0,.17-.4.58.58,0,0,0-.17-.41.59.59,0,0,0-.4-.16.56.56,0,0,0-.4.17.08.08,0,0,1-.11,0s0,0,0,0h0v0l.1-.85a.06.06,0,0,1,0-.06l0,0h1a.08.08,0,0,1,.08.08.08.08,0,0,1-.08.07h-.93l-.07.64a.65.65,0,0,1,.36-.1.72.72,0,0,1,.72.72.69.69,0,0,1-.21.51.72.72,0,0,1-1,0Z" style="fill:#fff"></path><path d="M243.62,148.06a.87.87,0,0,1,.75-.46.07.07,0,0,1,.07.07.08.08,0,0,1-.07.08.71.71,0,0,0-.62.39,1.4,1.4,0,0,0-.15.42.73.73,0,0,1,.53-.24.7.7,0,0,1,.7.7.71.71,0,0,1-.7.71.7.7,0,0,1-.7-.68.66.66,0,0,1,0-.14A1.83,1.83,0,0,1,243.62,148.06Zm-.05,1s0,0,0,0v0a.53.53,0,1,0,0-.08Z" style="fill:#fff"></path><path d="M245.61,149.62l.78-1.87h-1a.07.07,0,0,1,0-.14h1.17a0,0,0,0,1,0,0,0,0,0,0,1,0,0,.08.08,0,0,1,0,0l-.82,2a.08.08,0,0,1-.07,0h0A.1.1,0,0,1,245.61,149.62Z" style="fill:#fff"></path><path d="M247.71,147.59a.44.44,0,0,1,.44.44.45.45,0,0,1-.18.36.69.69,0,1,1-.95.64.7.7,0,0,1,.42-.64.46.46,0,0,1-.17-.36A.44.44,0,0,1,247.71,147.59Zm0,2a.54.54,0,0,0,.55-.55.56.56,0,0,0-.55-.54.55.55,0,0,0-.54.55A.54.54,0,0,0,247.71,149.57Zm0-1.24a.31.31,0,0,0,.3-.3.3.3,0,0,0-.3-.3.29.29,0,0,0-.3.3A.3.3,0,0,0,247.71,148.33Z" style="fill:#fff"></path><path d="M251.49,147.58a.7.7,0,0,1,.7.62h0v.18a1.77,1.77,0,0,1-.2.85.87.87,0,0,1-.74.47h0a.08.08,0,0,1,0-.15.74.74,0,0,0,.62-.39,1.22,1.22,0,0,0,.15-.43.68.68,0,0,1-.53.24.7.7,0,1,1,0-1.4Zm.56.7a.56.56,0,1,0-.56.55A.55.55,0,0,0,252.05,148.28Z" style="fill:#fff"></path><path d="M252.74,148.64a1.37,1.37,0,0,1,.2-.75.66.66,0,0,1,.53-.32.65.65,0,0,1,.53.32,1.46,1.46,0,0,1,0,1.49.66.66,0,0,1-.53.32.68.68,0,0,1-.54-.32A1.34,1.34,0,0,1,252.74,148.64Zm.15,0a1.22,1.22,0,0,0,.18.66.45.45,0,0,0,.81,0,1.22,1.22,0,0,0,.18-.66,1.17,1.17,0,0,0-.18-.66.45.45,0,0,0-.82,0A1.29,1.29,0,0,0,252.89,148.64Z" style="fill:#fff"></path><path d="M255.19,147.78l-.3.18h0a.09.09,0,0,1-.07,0,.07.07,0,0,1,0-.1l.41-.25a.08.08,0,0,1,.1,0,.13.13,0,0,1,0,.06v2a.08.08,0,0,1-.08.08.08.08,0,0,1-.07-.08Z" style="fill:#fff"></path><path d="M255.87,149.56l1-.9a.53.53,0,0,0,.18-.4.59.59,0,0,0-.14-.37.55.55,0,0,0-.41-.18.59.59,0,0,0-.37.14l-.1.1a.07.07,0,1,1-.1-.11l.1-.09a.75.75,0,0,1,.47-.19.68.68,0,0,1,.51.23.66.66,0,0,1,.19.47.71.71,0,0,1-.23.51l-.85.78h1a.08.08,0,0,1,.07.08.07.07,0,0,1-.07.07h-1.2a.07.07,0,0,1-.06,0A.09.09,0,0,1,255.87,149.56Z" style="fill:#fff"></path><path d="M260.77,147.69l-.55.56a.68.68,0,0,1,.36.2.76.76,0,0,1,.22.51.7.7,0,0,1-.22.51.71.71,0,0,1-1,0,.06.06,0,0,1,0-.1.08.08,0,0,1,.11,0,.61.61,0,0,0,.4.16.6.6,0,0,0,.41-.17.57.57,0,0,0,.16-.4.55.55,0,0,0-.16-.4.58.58,0,0,0-.41-.17l-.06,0h0a.08.08,0,0,1,0-.11l.53-.54h-.82a.07.07,0,0,1-.07-.08.07.07,0,0,1,.07-.07h1a.08.08,0,0,1,.07.08,0,0,0,0,1,0,0Z" style="fill:#fff"></path><path d="M262.56,149.24h-1.21a.08.08,0,0,1,0-.11l1.23-1.53h0a.07.07,0,0,1,.11,0l0,0h0v1.46h.14a.09.09,0,0,1,.08.08.08.08,0,0,1-.08.07h-.14v.36a.08.08,0,0,1-.08.08.08.08,0,0,1-.07-.08Zm0-.15v-1.24l-1,1.25Z" style="fill:#fff"></path><path d="M263.4,149.47a.08.08,0,0,1,.11-.11.57.57,0,0,0,.4.16.58.58,0,0,0,.57-.57.55.55,0,0,0-.16-.4.58.58,0,0,0-.41-.17.56.56,0,0,0-.4.17.08.08,0,0,1-.11,0s0,0,0,0h0v0h0l.1-.86s0,0,0-.06h1a.08.08,0,0,1,.08.08.07.07,0,0,1-.08.08h-.92l-.08.63a.78.78,0,0,1,.36-.1.71.71,0,0,1,.51.21.67.67,0,0,1,.21.51.69.69,0,0,1-.21.51.71.71,0,0,1-.51.21A.76.76,0,0,1,263.4,149.47Z" style="fill:#fff"></path><path d="M265.43,148a.87.87,0,0,1,.74-.47.08.08,0,0,1,.08.07.09.09,0,0,1-.08.08.74.74,0,0,0-.62.39,1.36,1.36,0,0,0-.15.43.71.71,0,0,1,.53-.25.71.71,0,1,1,0,1.41.7.7,0,0,1-.7-.68.61.61,0,0,1,0-.14A1.66,1.66,0,0,1,265.43,148Zm-.05,1V149a.56.56,0,1,0,.55-.63.55.55,0,0,0-.55.56Z" style="fill:#fff"></path><rect x="233.68" y="153.38" width="18.56" height="0.91" transform="translate(-0.4 0.63) rotate(-0.15)" style="fill:#fff"></rect><rect x="233.68" y="155.41" width="13.14" height="0.91" transform="translate(-0.4 0.62) rotate(-0.15)" style="fill:#fff"></rect><rect x="249.68" y="138.09" width="9.26" height="0.91" transform="translate(-0.36 0.66) rotate(-0.15)" style="fill:#fff"></rect></g><g id="freepik--Character--inject-23"><path d="M340.31,129.43l-.4.1a.24.24,0,0,1,.07-.12h0Z" style="fill:#263238"></path><path d="M351.82,418.33l-.18,0v-.13Z" style="fill:#f7a9a0"></path><polygon points="144.36 349.74 146.73 363.97 162.81 450.78 165.4 450.78 153.71 363.97 151.98 349.74 144.36 349.74" style="fill:#dbdbdb"></polygon><polygon points="151.98 349.74 144.36 349.74 146.73 363.97 153.71 363.97 151.98 349.74" style="fill:#a6a6a6"></polygon><polygon points="93.87 450.78 96.47 450.78 112.54 363.97 114.92 349.74 107.29 349.74 105.56 363.97 93.87 450.78" style="fill:#dbdbdb"></polygon><polygon points="107.29 349.74 105.56 363.97 112.54 363.97 114.92 349.74 107.29 349.74" style="fill:#a6a6a6"></polygon><polygon points="45.65 450.78 48.24 450.78 64.32 363.97 66.69 349.74 59.07 349.74 57.34 363.97 45.65 450.78" style="fill:#dbdbdb"></polygon><polygon points="57.34 363.97 64.32 363.97 66.69 349.74 59.07 349.74 57.34 363.97" style="fill:#a6a6a6"></polygon><polygon points="49.76 356.42 167.57 356.42 167.57 344.01 123.47 344.01 108.65 279.36 54.26 279.36 49.76 356.42" style="fill:#dbdbdb"></polygon><polygon points="49.76 356.42 56.19 356.42 60.37 279.36 54.26 279.36 49.76 356.42" style="fill:#a6a6a6"></polygon><path d="M236.57,429.39c-2.06,1.21-65.51,14.47-68.25,13.45-1-.38-3.51-9.51-6.18-20.63-.58-2.4-1.16-4.88-1.74-7.4C156.64,398.42,153,381,153,381l42.42-9,6.2,34.1,1.37,7.48s26.57,5.79,29.45,7.23S238.64,428.19,236.57,429.39Z" style="fill:#f7a9a0"></path><path d="M236.57,429.39c-2.06,1.21-65.51,14.47-68.25,13.45-1-.38-3.51-9.51-6.18-20.63-.58-2.4-1.16-4.88-1.74-7.4-.14-.59-.27-1.18-.4-1.77l41.5-7.78.15.8,1.37,7.48s26.57,5.79,29.45,7.23S238.64,428.19,236.57,429.39Z" style="fill:#ebebeb"></path><path d="M236.93,429.4c-2.09,1.22-66.27,14.54-69,13.5-1.06-.38-3.54-9.6-6.22-20.84a3.59,3.59,0,0,1-.08-.35l41.31-9.06.13.71s26.84,5.87,29.76,7.34S239,428.19,236.93,429.4Z" style="fill:#FFC727"></path><path d="M235.68,427.07c-10.87,2-54.54,11-65.14,13.77-.08,0-.07.09,0,.07,10.82-1.73,54.41-11.09,65.16-13.67C236,427.19,235.91,427,235.68,427.07Z" style="fill:#263238"></path><path d="M207.54,411.81c-4.42.09-9.49,1.83-12.12,5.53-.1.15.11.29.23.22a60.9,60.9,0,0,1,12-5.2A.28.28,0,0,0,207.54,411.81Z" style="fill:#263238"></path><path d="M211,413c-4.43.09-9.5,1.82-12.12,5.52-.1.15.1.29.23.22a60.65,60.65,0,0,1,12-5.2A.28.28,0,0,0,211,413Z" style="fill:#263238"></path><path d="M214.45,414.24c-4.42.09-9.49,1.82-12.11,5.53-.11.14.1.28.23.21a60.39,60.39,0,0,1,12-5.2A.28.28,0,0,0,214.45,414.24Z" style="fill:#263238"></path><path d="M211.15,401.39c-2.15-1.95-5.05-.27-6.52,1.59a23.21,23.21,0,0,0-4.53,11.1c0,.09.06.13.13.13a.54.54,0,0,0,.78.4c3.24-2,7-3.8,9.49-6.77C212,406.11,213.18,403.24,211.15,401.39Zm-5.85,9.13c-1.57,1-3.19,2-4.72,3.09.89-2.16,1.68-4.35,2.79-6.43a26,26,0,0,1,1.75-2.9c1-1.41,5.54-4.9,5.75-.08C211,406.86,207.17,409.29,205.3,410.52Z" style="fill:#263238"></path><path d="M189.05,415.22c3.82.76,7.83-.15,11.64-.56a.55.55,0,0,0,.37-.79.12.12,0,0,0,0-.19,23.08,23.08,0,0,0-10.44-5.91c-2.3-.56-5.62-.08-6.1,2.78C184.09,413.26,186.82,414.77,189.05,415.22Zm-2.55-2.64c-2.82-3.92,2.88-4,4.56-3.49a25.33,25.33,0,0,1,3.18,1.2,69.08,69.08,0,0,1,6.17,3.32c-1.88.09-3.74.34-5.62.49C192.55,414.29,188.05,414.75,186.5,412.58Z" style="fill:#263238"></path><path d="M179.73,459.86c-2.3.64-67-2.71-69.42-4.39-.52-.37.07-9.07.81-16.9.54-5.82,14.68-46.2,14.68-46.2l43.32,2.11L151.33,436s24.21,12.37,26.63,14.5S182,459.22,179.73,459.86Z" style="fill:#f7a9a0"></path><path d="M179.73,459.86c-2.3.64-67-2.71-69.42-4.39-.52-.37.07-9.07.81-16.9.18-1.92,1.83-7.58,4-14.31l39.77,3.52-3.52,8.2s24.21,12.37,26.63,14.5S182,459.22,179.73,459.86Z" style="fill:#ebebeb"></path><path d="M180.55,460.45c-2.33.63-67.76-3.22-70.16-4.94-.83-.58-.28-7,.55-17.42.09-1.16,1.24-5.39,1.24-5.51l39.88,2.84-.05.71s24.38,12.66,26.82,14.84S182.88,459.82,180.55,460.45Z" style="fill:#FFC727"></path><path d="M180,457.87c-11-.92-55.53-3.59-66.48-3.66-.09,0-.1.06,0,.07,10.9,1.15,55.43,3.46,66.48,3.77C180.18,458.06,180.19,457.89,180,457.87Z" style="fill:#263238"></path><path d="M156.76,435.82c-4.3-1.07-9.64-.72-13.14,2.18-.14.11,0,.3.17.26a61.82,61.82,0,0,1,12.92-1.9A.27.27,0,0,0,156.76,435.82Z" style="fill:#263238"></path><path d="M159.78,437.89c-4.29-1.07-9.64-.72-13.14,2.18-.14.11,0,.3.17.26a61.82,61.82,0,0,1,12.92-1.9A.27.27,0,0,0,159.78,437.89Z" style="fill:#263238"></path><path d="M162.8,440c-4.29-1.06-9.64-.71-13.14,2.19-.13.11,0,.3.17.26a61.82,61.82,0,0,1,12.92-1.9A.28.28,0,0,0,162.8,440Z" style="fill:#263238"></path><path d="M163,426.69c-1.57-2.44-4.81-1.57-6.71-.16a23.17,23.17,0,0,0-7.27,9.54.12.12,0,0,0,.09.16.54.54,0,0,0,.65.58c3.67-1.12,7.72-1.85,10.93-4.06C162.52,431.47,164.44,429,163,426.69Zm-8,7.3c-1.79.59-3.59,1.09-5.36,1.75a67.69,67.69,0,0,1,4.37-5.48,25.77,25.77,0,0,1,2.44-2.35c1.36-1.09,6.62-3.29,5.58,1.42C161.38,431.93,157.06,433.28,154.93,434Z" style="fill:#263238"></path><path d="M138,434.28c3.48,1.74,7.6,1.9,11.38,2.49a.53.53,0,0,0,.56-.66.12.12,0,0,0,.07-.18,23.12,23.12,0,0,0-8.53-8.42c-2.08-1.14-5.41-1.54-6.62,1.1S136,433.27,138,434.28Zm-1.78-3.2c-1.7-4.52,3.82-3.08,5.32-2.18a24.24,24.24,0,0,1,2.75,2c1.83,1.47,3.42,3.17,5.09,4.81-1.84-.4-3.69-.65-5.55-1C141.64,434.3,137.17,433.57,136.24,431.08Z" style="fill:#263238"></path><path d="M78.88,333.81c12.9,14.37,56.25,3,58.84,8.74,2.29,5-27.3,86.06-27.3,86.06l47.34,5.1S198.63,344.24,184,318.39c-7.89-14-42.66-8.4-63.64-10.95-6.33-.77-9.3-13.82-9.3-13.82H73.59S64.13,317.38,78.88,333.81Z" style="fill:#37474f"></path><path d="M170.86,310.38,131.11,340.8c-13.2-.28-42.1,4.29-52.23-7-14.75-16.43-5.29-40.19-5.29-40.19h37.49s3,13.05,9.3,13.82C135.11,309.23,156.61,307,170.86,310.38Z" style="fill:#263238"></path><path d="M159.57,423.15c-1.3-.41-13.58-1.78-16.29-2.07-5.42-.59-22.48-2.18-25.57-2.18a.08.08,0,0,0,0,.15c2.68.56,13.57,1.83,16.28,2.11,5.42.56,24.06,2.37,25.57,2.22A.12.12,0,0,0,159.57,423.15Z" style="fill:#263238"></path><path d="M143.47,337.8c-3.05-1.51-26.12-.76-42.68-2.31C95.4,335,90,333.83,85.87,330.3a24.72,24.72,0,0,1-7.37-12.14c-1.59-5.66-1.43-11.55-1.16-17.35.07-1.43.17-2.85.26-4.28,0-.08-.14-.09-.15,0-1.26,10.38-2.22,22,4.53,31a21.62,21.62,0,0,0,12.07,7.91c10,2.63,47.52,2,48.85,3,1.57,1.21-22.7,75.1-23.18,76.51-.09.26.38.44.49.18C122.6,409.41,146.12,339.12,143.47,337.8Z" style="fill:#263238"></path><path d="M185.72,320.89c-2.23-5.67-7.32-9.19-14.81-10.54-.13,0-.12.16,0,.19,6.54,1.91,11.21,4.54,13.78,10.06,1.2,2.57,1.82,6.19,2.13,11,1.55,24.2-19.56,79.12-20,80.07a.07.07,0,0,0,.13.07C169.94,406.77,194.94,344.28,185.72,320.89Z" style="fill:#263238"></path><path d="M202.84,403.89,167,411.51s28.28-84.4,15-95.29c-3.68-3-11.71-4.08-21.25,0C146.5,322.41,130,335,114.47,339.55c-14.56,4.29-31.84.34-37.78-6.21-12.5-13.75-3.1-39.73-3.1-39.73l49.16-1.94s.22.63,2.68,2.81c0,0,31.71-6.87,44.87,1.17C194.05,310.16,202.84,403.89,202.84,403.89Z" style="fill:#37474f"></path><path d="M95.86,296.62a.09.09,0,0,0-.18,0,29.46,29.46,0,0,1-.44,5.78,10,10,0,0,1-2.6,4.8c-2.82,2.86-6.88,3.83-10.58,5-.2.07-.16.41.06.38,4.11-.64,8.43-1.68,11.43-4.76a10,10,0,0,0,2.66-5.18A12.29,12.29,0,0,0,95.86,296.62Z" style="fill:#263238"></path><path d="M181.1,314.61c-5.51-3.46-14.13-.84-18.25.74-.09,0,0,.18,0,.14,3.79-1.36,13.23-3.43,18.28.15,11.67,8.26-3.95,64.77-14.18,95.87-.16.49.22.36.44-.11,1.69-3.69,14.88-43,18.32-69C186.28,338.42,189,319.59,181.1,314.61Z" style="fill:#263238"></path><path d="M198.75,394.36c-1.08,0-10.37,2-12.42,2.48-4.09.92-13.58,3.38-15.8,4.22-.05,0,0,.15.05.14,2.12-.2,7.07-1.29,9.11-1.76,4.09-.95,18.1-4.31,19.13-4.86C198.91,394.53,198.86,394.36,198.75,394.36Z" style="fill:#263238"></path><path d="M179.34,313.14c-3.71-2-8.12-2.36-12.24-1.85a42.57,42.57,0,0,0-12.5,3.91c-8.39,3.83-16.38,8.52-24.77,12.33s-17.26,6.76-26.46,7c-7.87.25-17.82-1.14-22.88-8.21-7.79-10.9-3.25-29.7-3.16-30.91,0-.09-.12-.09-.14,0-6,23.1,1.73,32.07,7,35.84,4.17,3,10.15,3.76,14.11,4.09,9.15.77,18.33-1.47,26.81-4.85,8.69-3.46,16.85-8.12,25.18-12.38,8-4.09,16.88-8.3,26-6a22.12,22.12,0,0,1,3,1C179.36,313.25,179.39,313.16,179.34,313.14Z" style="fill:#263238"></path><path d="M134.11,240a.44.44,0,0,1-.35.47l-1.81.12c-1.62-4.23-3.37-7.58-2.91-6.27a21.79,21.79,0,0,1,1.13,6.37l-3.57.18c-1.41-7.43-3.22-12.94-3.11-11.24.46,6.86.05,9.07-.42,11.42-8.62.41-19.93.82-28.12.93-.94-4.1-1.77-8.55-1.91-8.24-1.12,2.32-1.42,5.69-1.44,8.29-2.61,0-4.69,0-6-.1,0,0-.61-3.45-.7-4.59a23.74,23.74,0,0,1,.91-8.66,43,43,0,0,1,3.78-8l0-.06v0a24,24,0,0,0,2.17-5.36s0,0,0,0a24.62,24.62,0,0,0,.67-4.12c.38-5.07,3.23-9.46,8-10.81,9-8.49,18-4.93,20.76,1.58.26.63.51,1.36.76,2.15v0c.92,2.94,1.75,6.74,2.52,9.68a0,0,0,0,0,0,0s0,0,0,0h0a30.06,30.06,0,0,0,1.07,3.4C128,222.43,133.15,225.43,134.11,240Z" style="fill:#263238"></path><path d="M98.46,201.65a9.63,9.63,0,0,0-5.53,7.73,24.54,24.54,0,0,1-1.25,6.3,22.47,22.47,0,0,1-3.6,5.56,16.38,16.38,0,0,0-4.09,9.1,27.93,27.93,0,0,0,1.07,11.49,0,0,0,0,0,0,0,29.47,29.47,0,0,1-.42-12c.68-4,2.95-6.55,5.28-9.6A16.82,16.82,0,0,0,93.38,212c.23-1.83.2-3.73.94-5.46A10.79,10.79,0,0,1,98.69,202,.22.22,0,0,0,98.46,201.65Z" style="fill:#263238"></path><path d="M130.92,222.81c-2.21-2.88-4.51-5.33-5.81-8.9-1.18-3.25-1.85-6.68-3-9.93,0,0-.1,0-.08,0,1.85,5.77,2.21,11.59,5.94,16.44,2,2.63,4,5.07,5.38,8.23a28,28,0,0,1,2.1,10.43.09.09,0,1,0,.18,0A23.31,23.31,0,0,0,130.92,222.81Z" style="fill:#263238"></path><path d="M161.1,214.39l-10.86,26.69a1,1,0,0,0,.71,1.6l14.27,2a2.34,2.34,0,0,0,2.19-1.19l10.85-26.69a1,1,0,0,0-.7-1.6l-14.28-2A2.33,2.33,0,0,0,161.1,214.39Z" style="fill:#37474f"></path><path d="M162.79,214.62,151.94,241.3a1,1,0,0,0,.7,1.6l14.28,2a2.31,2.31,0,0,0,2.18-1.19L180,217a1,1,0,0,0-.7-1.6l-14.28-2A2.35,2.35,0,0,0,162.79,214.62Z" style="fill:#455a64"></path><path d="M166.53,216.43a1.23,1.23,0,0,1-2.42-.39,1.24,1.24,0,0,1,1.41-1A1.22,1.22,0,0,1,166.53,216.43Z" style="fill:#263238"></path><path d="M109.21,249.82c5.5,18.38,20.27,43.4,27.75,44.62,3.56.58,9.8,2.38,15.09-1,11.55-7.42,22.64-23.24,25.84-32.77,1.14-3.39-14.67-13.46-17.6-11-6.84,5.76-15.6,17.77-16.62,17.54-3.8-.87-16.93-15.6-26.08-26C106.47,228.67,107,242.49,109.21,249.82Z" style="fill:#f7a9a0"></path><path d="M181,242.73c-.74-7.33-2.05-9.1.61-15.63,1.75-4.28-.23-7.23-3.91-4.14-6,5.06-7.06,14.73-6.45,18.18Z" style="fill:#f7a9a0"></path><path d="M176.61,263.57s4.63-9.38,4.62-17.27c0-5.46-1.35-17.34-15.4-25.6-3.33-2-9.47-2.39-5.19,2.79,3,3.67,6.08,5.09,7.46,7.55,0,0-7.87.38-9.71,3.79a72.27,72.27,0,0,0-4.15,9.27,16.8,16.8,0,0,0,1.66.93s-1.61,3.25.2,8.47Z" style="fill:#f7a9a0"></path><path d="M180.39,241.09c-1.89-2.16-6-6.65-10.57-9.17-5.12-2.8-15.74-6.81-17.76-3-1.49,2.78,2.43,4.67,2.43,4.67s-4.74-.73-5.53,2.08c-.72,2.56,2.4,3.84,2.4,3.84s-3,.05-3.18,2.65c-.26,3.13,6,2.51,8.44,5.92C157.17,248.83,180.39,241.09,180.39,241.09Z" style="fill:#f7a9a0"></path><path d="M167.77,237.82a23.26,23.26,0,0,0-13.18-4.3c-.12,0-.18.09-.07.11a57.08,57.08,0,0,1,13.22,4.24A0,0,0,0,0,167.77,237.82Z" style="fill:#263238"></path><path d="M164.79,242.91a26.08,26.08,0,0,0-13.41-3.51c-.12,0-.17.1-.06.12A61,61,0,0,1,164.77,243S164.82,242.92,164.79,242.91Z" style="fill:#263238"></path><path d="M177,267.86s-18,25.32-26.54,27.28-13.26.53-16.19-.37a8,8,0,0,1-2.95-2c-7.26-7-18.74-29.74-22.92-42.17-3.13-9.34-1.46-17.12,4.88-13.58a22.66,22.66,0,0,1,5.61,4.89c10.81,12.21,23.67,24.23,24.41,24s9.53-10.44,9.53-10.44Z" style="fill:#FFC727"></path><path d="M172.8,272.33c-.85-.65-9-5.34-10.84-6.32s-9.13-5.06-11.07-5.92a.08.08,0,0,0-.08.13c1.75,1.2,9.13,5.34,10.94,6.37s10,5.5,11,5.87C172.82,272.49,172.85,272.38,172.8,272.33Z" style="fill:#263238"></path><path d="M137.52,261.1a130,130,0,0,1-19.37,11.58c-1.6-3.06-3.14-6.19-4.53-9.23a113.51,113.51,0,0,0,16.56-9.5C132.9,256.69,135.42,259.14,137.52,261.1Z" style="fill:#ebebeb"></path><path d="M156.51,291.52c-2.26,1.89-4.35,3.23-6.07,3.62-8.52,2-13.26.53-16.19-.37a8,8,0,0,1-2.95-2c-7.26-7-18.74-29.74-22.92-42.17-2.84-8.47-1.73-15.65,3.22-14.28C122.91,250.12,144.4,276.59,156.51,291.52Z" style="opacity:0.1"></path><path d="M124.57,276.59l2,16.32L70.2,296.56s13-47.37,23.23-57.86c6.9-7.1,14.75-6.34,19.63-1.12,1.23,1.32,14.08,17,15.47,24.65C129.74,269,124.57,276.59,124.57,276.59Z" style="fill:#FFC727"></path><path d="M127,272c-10.7,1.52-32.82,3.84-49.19.14,1.52-4.43,3.19-9,4.93-13.38a154.32,154.32,0,0,0,44.22-1,18.47,18.47,0,0,1,1.57,4.46C129.14,265.62,128.14,269.22,127,272Z" style="fill:#ebebeb"></path><path d="M125.65,285.57c-.5-3-.94-6-1.35-8.95v-.09l.06-.1a26.67,26.67,0,0,0,3.23-6.9,17.58,17.58,0,0,0,.71-3.72,11.8,11.8,0,0,0-.2-3.75,19.62,19.62,0,0,0-1.15-3.63c-.47-1.19-1-2.35-1.62-3.49a65.81,65.81,0,0,0-4-6.61,45.93,45.93,0,0,1,4.44,6.37,25.88,25.88,0,0,1,3,7.21,15,15,0,0,1-.5,7.83,24.57,24.57,0,0,1-3.48,7l0-.19C125.14,279.56,125.42,282.56,125.65,285.57Z" style="fill:#263238"></path><path d="M124.17,250.49a13.88,13.88,0,0,1,1.51,2.88,11.71,11.71,0,0,1,.51,1.55,6.35,6.35,0,0,1,.24,1.62c-.39-1-.82-2-1.21-3A28.27,28.27,0,0,1,124.17,250.49Z" style="fill:#263238"></path><path d="M95.08,236.12C75.24,246.19,52.47,268.93,53.8,276.5c1.49,8.42,30-5.82,29.71-7.08-.25-1.08,5.74-10.13,14.3-23.1C106.52,233.13,100,233.63,95.08,236.12Z" style="fill:#FFC727"></path><path d="M89.48,259c-2.63,4.07-4.54,7.14-5.42,8.88a143.9,143.9,0,0,1-20-8.18c2.35-2.47,5-5,7.86-7.51A116.14,116.14,0,0,0,89.48,259Z" style="fill:#ebebeb"></path><path d="M53.8,276.5c1.74,5.88,10.52,9.82,31.69,21.83,2.93,1.66,20.21-15.86,17.17-17.79-3.82-2.44-19.19-11.07-20.4-11.55C72.11,264.86,52.62,272.5,53.8,276.5Z" style="fill:#f7a9a0"></path><path d="M98.48,278s9.11,4.66,13.14,8.58a36.34,36.34,0,0,1,8.76,14.92c1.82,6.05,2.05,21.93-2.51,22.79-4.13.79-3.55-15.46-3.55-15.46s2.14,16.66-3,16.69-3.39-18.79-3.39-18.79,1.81,17.17-3.5,16.36c-4-.62-3.39-17.75-3.39-17.75s1.46,14.77-2.7,14.31c-4.59-.5-5-16.35-5-16.35C83,300.36,79.22,294.73,77,290.4,76.51,289.35,98.48,278,98.48,278Z" style="fill:#f7a9a0"></path><path d="M114,303c.33,1.95.67,3.92.81,5.89s.23,4,.19,5.92a33.86,33.86,0,0,1-.87,7.67c.71-4.54.29-11.6.14-13.57S114,305,113.88,303C113.88,303,114,303,114,303Z" style="fill:#263238"></path><path d="M106.83,303.41c.3,2.51.7,5,.89,7.51s.15,4.9.17,7.41c0,.2-.1.13-.11-.06-.12-2.51-.42-4.83-.57-7.33s-.2-5-.44-7.52C106.77,303.38,106.83,303.38,106.83,303.41Z" style="fill:#263238"></path><path d="M100.66,302.66a57.41,57.41,0,0,1,.48,11.57c0,.2-.14.1-.14-.1-.09-3.85-.13-6.87-.48-11.45C100.52,302.61,100.64,302.58,100.66,302.66Z" style="fill:#263238"></path><path d="M103,278.49S78.64,297.06,78.39,297,54.19,282.81,53.8,276.5s19.44-11.05,28.44-7.56S103,278.49,103,278.49Z" style="fill:#FFC727"></path><path d="M94.76,275.81c-1,.57-8.65,6.77-10.29,8.15s-8.41,7-10,8.54a.08.08,0,0,0,.1.12c1.84-1.24,8.68-6.86,10.38-8.24s9.18-7.67,9.91-8.47C94.93,275.84,94.83,275.77,94.76,275.81Z" style="fill:#263238"></path><path d="M71.41,268c2.09-.33,7.84-.81,12.51,1.53,0,0,0,.09,0,.07a38.23,38.23,0,0,0-12.47-1.52S71.35,268,71.41,268Z" style="fill:#263238"></path><path d="M101.51,279.64l1.47-1.2v.12l-4.83-2.4c-1.61-.8-3.23-1.57-4.86-2.33-3.25-1.54-6.53-3-9.86-4.34l-.39-.16.2-.36c1.86-3.39,3.78-6.73,5.84-10a109.16,109.16,0,0,1,6.62-9.47q-3.21,4.8-6.13,9.76c-1.95,3.32-3.88,6.64-5.67,10l-.19-.51c3.35,1.36,6.62,2.88,9.85,4.48,1.6.81,3.2,1.65,4.79,2.5s3.14,1.75,4.7,2.65l.1.06-.09.06Z" style="fill:#263238"></path><path d="M90.82,256.73a20.52,20.52,0,0,1,1.87-2.17,15,15,0,0,1,2.2-1.84,15.66,15.66,0,0,1-1.84,2.2c-.35.33-.69.66-1.06,1A7.6,7.6,0,0,1,90.82,256.73Z" style="fill:#263238"></path><path d="M71.33,292.6A22.38,22.38,0,0,1,77,296.12,19.6,19.6,0,0,1,74,294.57,20.51,20.51,0,0,1,71.33,292.6Z" style="fill:#263238"></path><path d="M92.85,237.3s10.26,9.3,17.63,8.86,6.28-6.47,6.28-6.47-5.28-6.28-12.48-6.17A18.84,18.84,0,0,0,92.85,237.3Z" style="fill:#f7a9a0"></path><path d="M102,236.8c.26,1.48,3.77,8.2,8.28,8,2.32-.07,2.37-8.2,2.37-8.2l.11-.6,1.6-8.37-11.39-6.74S101.88,236.38,102,236.8Z" style="fill:#f7a9a0"></path><path d="M102.55,226.69A17.12,17.12,0,0,0,112.73,236l1.6-8.37-11.4-6.75S102.75,223.56,102.55,226.69Z" style="fill:#263238"></path><path d="M126.06,214.84c1.31,14.89-7.46,17.35-10.67,17.63-2.92.25-12.88.74-15.72-13.93s3.68-20,10.31-20.93S124.76,199.94,126.06,214.84Z" style="fill:#f7a9a0"></path><path d="M123.5,211.5a8.56,8.56,0,0,1-1-.19,1.63,1.63,0,0,1-1-.38.53.53,0,0,1,0-.65,1.32,1.32,0,0,1,1.29-.35,1.94,1.94,0,0,1,1.23.65A.57.57,0,0,1,123.5,211.5Z" style="fill:#263238"></path><path d="M113.94,211.82c.35-.06.66-.16,1-.25a1.61,1.61,0,0,0,1-.44.53.53,0,0,0,0-.65,1.32,1.32,0,0,0-1.31-.27,2,2,0,0,0-1.19.72A.57.57,0,0,0,113.94,211.82Z" style="fill:#263238"></path><path d="M116,215.53s-.08.05-.07.09c.08,1,0,2.19-.89,2.58,0,0,0,.06,0,.05C116.2,218,116.28,216.48,116,215.53Z" style="fill:#263238"></path><path d="M115.08,214.51c-1.64,0-1.6,3.25-.08,3.29S116.45,214.55,115.08,214.51Z" style="fill:#263238"></path><path d="M114.43,214.7c-.28.19-.56.52-.9.56s-.71-.3-1-.63c0,0-.06,0-.06,0,0,.63.25,1.27.93,1.36s1-.49,1.2-1.12C114.65,214.79,114.55,214.62,114.43,214.7Z" style="fill:#263238"></path><path d="M121.64,215.28s.08.05.08.09c0,1,.11,2.19,1,2.52,0,0,0,.06,0,.06C121.62,217.8,121.45,216.24,121.64,215.28Z" style="fill:#263238"></path><path d="M122.54,214.21c1.64-.13,1.79,3.15.27,3.27S121.17,214.32,122.54,214.21Z" style="fill:#263238"></path><path d="M123.24,214.4c.26.16.53.46.85.47s.61-.36.82-.71c0,0,0,0,0,0,.05.63-.13,1.29-.73,1.44s-1-.38-1.15-1C123.05,214.51,123.13,214.33,123.24,214.4Z" style="fill:#263238"></path><path d="M115.75,223.55c.18.28.35.65.71.76a2.49,2.49,0,0,0,1.12,0s.06,0,0,.06a1.36,1.36,0,0,1-1.38.27,1.08,1.08,0,0,1-.59-1.05C115.64,223.51,115.72,223.51,115.75,223.55Z" style="fill:#263238"></path><path d="M120.29,219.84s.25,1.52.27,2.23a3.84,3.84,0,0,1-3.79-1.06c-.06-.06,0-.15.11-.1a5.12,5.12,0,0,0,3.13.81c0-.2-.51-2.58-.4-2.59a6.12,6.12,0,0,1,1.64.33c-.42-3.17-1.35-6.25-1.73-9.41a.1.1,0,0,1,.19-.05A51.65,51.65,0,0,1,122,220.05C122.07,220.46,120.58,220,120.29,219.84Z" style="fill:#263238"></path><path d="M119.58,222a3.69,3.69,0,0,1-1.48,1.16,1.64,1.64,0,0,1-1,.07c-.73-.19-.76-.86-.63-1.43a4,4,0,0,1,.33-.89A4.73,4.73,0,0,0,119.58,222Z" style="fill:#263238"></path><path d="M118.1,223.18a1.64,1.64,0,0,1-1,.07c-.73-.19-.76-.86-.63-1.43A1.71,1.71,0,0,1,118.1,223.18Z" style="fill:#ff9bbc"></path><path d="M101.76,199.48c1.32-.38,3.09-7.44-1.36-11.21s-10.77-.34-8.69,5.72C93,197.82,99,200.28,101.76,199.48Z" style="fill:#263238"></path><path d="M93.86,187.34a8.08,8.08,0,0,0-3.07,4.33,4.87,4.87,0,0,0,1.08,4.72,9.86,9.86,0,0,0,4.5,2.65,14.92,14.92,0,0,0,2.66.53,7.38,7.38,0,0,0,2.73-.09,6.44,6.44,0,0,1-2.75.59,11.35,11.35,0,0,1-2.84-.26,9.46,9.46,0,0,1-5.06-2.73,5.65,5.65,0,0,1-1.36-2.69,5.71,5.71,0,0,1,.29-3A7,7,0,0,1,93.86,187.34Z" style="fill:#263238"></path><path d="M100.51,218.12c2.78.4,3.61-6,3.61-6s11.92-1.82,13.09-11.48a16.37,16.37,0,0,0,8.11,9.1s-.23-10.62-8.61-12.82c0,0-10.38-4-16.39,4.21S98.64,217.85,100.51,218.12Z" style="fill:#263238"></path><path d="M117.26,199.94a10.38,10.38,0,0,1-.6,4.41,11,11,0,0,1-2.31,3.88c-.24.29-.55.52-.82.79l-.42.38c-.14.12-.3.22-.45.33-.32.21-.62.44-.94.64l-1,.52-.5.25-.53.19-1,.39c-.73.18-1.46.34-2.18.47.69-.28,1.39-.49,2.06-.78l1-.47.49-.23c.16-.08.31-.18.47-.28s.61-.38.93-.56.57-.43.86-.65l.43-.32.39-.37a9.08,9.08,0,0,0,.76-.76,12.44,12.44,0,0,0,2.33-3.6,14.21,14.21,0,0,0,1.08-4.23Z" style="fill:#263238"></path><path d="M102.28,217.59s-3.26-4.66-5.38-3.5.34,7.93,2.83,8.85a2.53,2.53,0,0,0,3.39-1.36Z" style="fill:#f7a9a0"></path><path d="M97.65,216s0,0,0,.06a6.44,6.44,0,0,1,3.31,4,1.39,1.39,0,0,0-2.09-.38s0,.1,0,.09a1.56,1.56,0,0,1,1.71.54,8.37,8.37,0,0,1,.82,1.38c.08.16.36.08.3-.1v0C101.77,219.34,100,216.24,97.65,216Z" style="fill:#263238"></path><path d="M100,222.39a.65.65,0,0,0,.79.45.64.64,0,0,0-.33-1.24A.65.65,0,0,0,100,222.39Z" style="fill:#455a64"></path><path d="M100.34,222.3a.29.29,0,0,0,.37.21.31.31,0,0,0,.22-.37.31.31,0,0,0-.59.16Z" style="fill:#263238"></path><path d="M98.89,221.61a.46.46,0,1,0,.32-.56A.46.46,0,0,0,98.89,221.61Z" style="fill:#455a64"></path></g></svg>